<mxfile host="app.diagrams.net" modified="2022-06-27T07:09:04.374Z" agent="5.0 (X11)" etag="iUHuNE9e8RxxqZacGuWo" version="20.0.3" type="github" pages="4">
  <diagram id="sQK1rTtqv5rbWFowfRSD" name="DevOps">
    <mxGraphModel dx="1038" dy="610" grid="1" gridSize="10" guides="1" tooltips="1" connect="1" arrows="1" fold="1" page="1" pageScale="1" pageWidth="850" pageHeight="1100" math="0" shadow="0">
      <root>
        <mxCell id="0" />
        <mxCell id="1" parent="0" />
        <mxCell id="g__dr2yv431udqVOxD2J-2" value="" style="shape=note;whiteSpace=wrap;html=1;backgroundOutline=1;darkOpacity=0.05;dashed=1;fillColor=none;strokeColor=#D765A9;" parent="1" vertex="1">
          <mxGeometry x="80" y="280" width="160" height="360" as="geometry" />
        </mxCell>
        <mxCell id="g__dr2yv431udqVOxD2J-3" value="" style="shape=note;whiteSpace=wrap;html=1;backgroundOutline=1;darkOpacity=0.05;dashed=1;strokeColor=#413CD7;fillColor=none;" parent="1" vertex="1">
          <mxGeometry x="360" y="281" width="160" height="359" as="geometry" />
        </mxCell>
        <mxCell id="PmebwUOFx_2qxqMwoOcr-13" style="edgeStyle=orthogonalEdgeStyle;rounded=0;orthogonalLoop=1;jettySize=auto;html=1;exitX=1;exitY=0.5;exitDx=0;exitDy=0;entryX=0;entryY=0.5;entryDx=0;entryDy=0;entryPerimeter=0;" parent="1" source="PmebwUOFx_2qxqMwoOcr-1" target="PmebwUOFx_2qxqMwoOcr-2" edge="1">
          <mxGeometry relative="1" as="geometry" />
        </mxCell>
        <mxCell id="PmebwUOFx_2qxqMwoOcr-1" value="&lt;div&gt;Developer&lt;/div&gt;&lt;div&gt;开发者&lt;br&gt;&lt;/div&gt;" style="rounded=0;whiteSpace=wrap;html=1;" parent="1" vertex="1">
          <mxGeometry x="40" y="170" width="120" height="60" as="geometry" />
        </mxCell>
        <mxCell id="PmebwUOFx_2qxqMwoOcr-14" style="edgeStyle=orthogonalEdgeStyle;rounded=0;orthogonalLoop=1;jettySize=auto;html=1;exitX=1;exitY=0.5;exitDx=0;exitDy=0;exitPerimeter=0;entryX=0;entryY=0.5;entryDx=0;entryDy=0;" parent="1" source="PmebwUOFx_2qxqMwoOcr-2" target="PmebwUOFx_2qxqMwoOcr-3" edge="1">
          <mxGeometry relative="1" as="geometry" />
        </mxCell>
        <mxCell id="PmebwUOFx_2qxqMwoOcr-2" value="&lt;div&gt;Git Repo&lt;/div&gt;&lt;div&gt;源码仓库&lt;br&gt;&lt;/div&gt;" style="shape=cylinder3;whiteSpace=wrap;html=1;boundedLbl=1;backgroundOutline=1;size=15;" parent="1" vertex="1">
          <mxGeometry x="230" y="160" width="60" height="80" as="geometry" />
        </mxCell>
        <mxCell id="PmebwUOFx_2qxqMwoOcr-15" style="edgeStyle=orthogonalEdgeStyle;rounded=0;orthogonalLoop=1;jettySize=auto;html=1;exitX=1;exitY=0.5;exitDx=0;exitDy=0;entryX=0;entryY=0.5;entryDx=0;entryDy=0;" parent="1" source="PmebwUOFx_2qxqMwoOcr-3" target="PmebwUOFx_2qxqMwoOcr-4" edge="1">
          <mxGeometry relative="1" as="geometry" />
        </mxCell>
        <mxCell id="PmebwUOFx_2qxqMwoOcr-16" style="edgeStyle=orthogonalEdgeStyle;rounded=0;orthogonalLoop=1;jettySize=auto;html=1;exitX=0.5;exitY=1;exitDx=0;exitDy=0;entryX=0.5;entryY=0;entryDx=0;entryDy=0;" parent="1" source="PmebwUOFx_2qxqMwoOcr-3" target="PmebwUOFx_2qxqMwoOcr-8" edge="1">
          <mxGeometry relative="1" as="geometry" />
        </mxCell>
        <mxCell id="PmebwUOFx_2qxqMwoOcr-3" value="&lt;div&gt;CI/CD&lt;/div&gt;&lt;div&gt;持续集成/发布&lt;br&gt;&lt;/div&gt;" style="ellipse;whiteSpace=wrap;html=1;aspect=fixed;" parent="1" vertex="1">
          <mxGeometry x="400" y="160" width="80" height="80" as="geometry" />
        </mxCell>
        <mxCell id="PmebwUOFx_2qxqMwoOcr-17" style="edgeStyle=orthogonalEdgeStyle;rounded=0;orthogonalLoop=1;jettySize=auto;html=1;exitX=0.5;exitY=1;exitDx=0;exitDy=0;entryX=0.75;entryY=0;entryDx=0;entryDy=0;" parent="1" source="PmebwUOFx_2qxqMwoOcr-4" target="PmebwUOFx_2qxqMwoOcr-8" edge="1">
          <mxGeometry relative="1" as="geometry" />
        </mxCell>
        <mxCell id="PmebwUOFx_2qxqMwoOcr-24" value="动态分配和销毁" style="edgeLabel;html=1;align=center;verticalAlign=middle;resizable=0;points=[];" parent="PmebwUOFx_2qxqMwoOcr-17" vertex="1" connectable="0">
          <mxGeometry x="-0.1391" y="-1" relative="1" as="geometry">
            <mxPoint as="offset" />
          </mxGeometry>
        </mxCell>
        <mxCell id="PmebwUOFx_2qxqMwoOcr-4" value="&lt;div&gt;Build/Package Cluster&lt;/div&gt;&lt;div&gt;构建集群&lt;br&gt;&lt;/div&gt;" style="rounded=1;whiteSpace=wrap;html=1;" parent="1" vertex="1">
          <mxGeometry x="580" y="170" width="120" height="60" as="geometry" />
        </mxCell>
        <mxCell id="PmebwUOFx_2qxqMwoOcr-5" value="&lt;div&gt;ENV dev&lt;/div&gt;&lt;div&gt;研发环境&lt;/div&gt;" style="rhombus;whiteSpace=wrap;html=1;" parent="1" vertex="1">
          <mxGeometry x="120" y="321" width="80" height="80" as="geometry" />
        </mxCell>
        <mxCell id="PmebwUOFx_2qxqMwoOcr-6" value="&lt;div&gt;ENV test&lt;br&gt;&lt;/div&gt;&lt;div&gt;测试环境&lt;/div&gt;" style="rhombus;whiteSpace=wrap;html=1;" parent="1" vertex="1">
          <mxGeometry x="120" y="428" width="80" height="80" as="geometry" />
        </mxCell>
        <mxCell id="PmebwUOFx_2qxqMwoOcr-7" value="&lt;div&gt;ENV prod&lt;/div&gt;&lt;div&gt;生产环境&lt;br&gt;&lt;/div&gt;" style="rhombus;whiteSpace=wrap;html=1;" parent="1" vertex="1">
          <mxGeometry x="120" y="531" width="80" height="80" as="geometry" />
        </mxCell>
        <mxCell id="PmebwUOFx_2qxqMwoOcr-22" style="edgeStyle=orthogonalEdgeStyle;rounded=0;orthogonalLoop=1;jettySize=auto;html=1;exitX=0.5;exitY=1;exitDx=0;exitDy=0;entryX=0.5;entryY=0;entryDx=0;entryDy=0;" parent="1" source="PmebwUOFx_2qxqMwoOcr-8" target="PmebwUOFx_2qxqMwoOcr-9" edge="1">
          <mxGeometry relative="1" as="geometry" />
        </mxCell>
        <mxCell id="g__dr2yv431udqVOxD2J-4" style="edgeStyle=orthogonalEdgeStyle;rounded=0;orthogonalLoop=1;jettySize=auto;html=1;exitX=1;exitY=0.5;exitDx=0;exitDy=0;entryX=0.5;entryY=0;entryDx=0;entryDy=0;" parent="1" source="PmebwUOFx_2qxqMwoOcr-8" target="PmebwUOFx_2qxqMwoOcr-11" edge="1">
          <mxGeometry relative="1" as="geometry" />
        </mxCell>
        <mxCell id="PmebwUOFx_2qxqMwoOcr-8" value="&lt;div&gt;Package&lt;br&gt;&lt;/div&gt;&lt;div&gt;应用打包&lt;/div&gt;" style="rounded=1;whiteSpace=wrap;html=1;" parent="1" vertex="1">
          <mxGeometry x="380" y="321" width="120" height="60" as="geometry" />
        </mxCell>
        <mxCell id="PmebwUOFx_2qxqMwoOcr-23" style="edgeStyle=orthogonalEdgeStyle;rounded=0;orthogonalLoop=1;jettySize=auto;html=1;exitX=0.5;exitY=1;exitDx=0;exitDy=0;entryX=0.5;entryY=0;entryDx=0;entryDy=0;" parent="1" source="PmebwUOFx_2qxqMwoOcr-9" target="PmebwUOFx_2qxqMwoOcr-10" edge="1">
          <mxGeometry relative="1" as="geometry" />
        </mxCell>
        <mxCell id="PmebwUOFx_2qxqMwoOcr-9" value="&lt;div&gt;Build/Image push&lt;br&gt;&lt;/div&gt;&lt;div&gt;镜像构建和推送&lt;/div&gt;" style="rounded=1;whiteSpace=wrap;html=1;" parent="1" vertex="1">
          <mxGeometry x="380" y="438" width="120" height="60" as="geometry" />
        </mxCell>
        <mxCell id="PmebwUOFx_2qxqMwoOcr-27" style="edgeStyle=orthogonalEdgeStyle;rounded=0;orthogonalLoop=1;jettySize=auto;html=1;exitX=0;exitY=0.5;exitDx=0;exitDy=0;" parent="1" source="PmebwUOFx_2qxqMwoOcr-10" target="PmebwUOFx_2qxqMwoOcr-7" edge="1">
          <mxGeometry relative="1" as="geometry" />
        </mxCell>
        <mxCell id="PmebwUOFx_2qxqMwoOcr-10" value="&lt;div&gt;Deploy&lt;br&gt;&lt;/div&gt;&lt;div&gt;部署应用&lt;/div&gt;" style="rounded=1;whiteSpace=wrap;html=1;" parent="1" vertex="1">
          <mxGeometry x="380" y="541" width="120" height="60" as="geometry" />
        </mxCell>
        <mxCell id="PmebwUOFx_2qxqMwoOcr-11" value="&lt;div&gt;Image repo&lt;br&gt;&lt;/div&gt;&lt;div&gt;镜像仓库&lt;/div&gt;" style="rhombus;whiteSpace=wrap;html=1;" parent="1" vertex="1">
          <mxGeometry x="600" y="358" width="80" height="80" as="geometry" />
        </mxCell>
        <mxCell id="PmebwUOFx_2qxqMwoOcr-12" value="&lt;h1&gt;DevOps 持续集成交付流程&lt;/h1&gt;&lt;p&gt;使用GitLab，利用容器集群，配合自动发布程序，实现从代码提交到应用部署的全自动化流程&lt;br&gt;&lt;/p&gt;" style="text;html=1;strokeColor=#7EA6E0;fillColor=none;spacing=5;spacingTop=-20;whiteSpace=wrap;overflow=hidden;rounded=0;" parent="1" vertex="1">
          <mxGeometry x="40" y="40" width="680" height="80" as="geometry" />
        </mxCell>
      </root>
    </mxGraphModel>
  </diagram>
  <diagram id="Sk3SntLdg2Qn3jcV85j4" name="HPA">
    <mxGraphModel dx="1038" dy="610" grid="1" gridSize="10" guides="1" tooltips="1" connect="1" arrows="1" fold="1" page="1" pageScale="1" pageWidth="850" pageHeight="1100" math="0" shadow="0">
      <root>
        <mxCell id="0" />
        <mxCell id="1" parent="0" />
        <mxCell id="s1WzBIUqZS0wOWzxxjqr-35" value="" style="shape=note;whiteSpace=wrap;html=1;backgroundOutline=1;darkOpacity=0.05;labelBackgroundColor=none;fontSize=13;fontColor=#000000;strokeColor=#7EA6E0;fillColor=#EBECFF;gradientColor=none;gradientDirection=west;" parent="1" vertex="1">
          <mxGeometry x="40" y="190" width="760" height="140" as="geometry" />
        </mxCell>
        <mxCell id="s1WzBIUqZS0wOWzxxjqr-7" value="" style="shape=note;whiteSpace=wrap;html=1;backgroundOutline=1;darkOpacity=0.05;strokeColor=#7EA6E0;fillColor=default;gradientColor=none;gradientDirection=west;align=left;" parent="1" vertex="1">
          <mxGeometry x="60" y="220" width="240" height="90" as="geometry" />
        </mxCell>
        <mxCell id="s1WzBIUqZS0wOWzxxjqr-1" value="Pod" style="rounded=0;whiteSpace=wrap;html=1;strokeColor=#7EA6E0;fillColor=#EDEDED;gradientColor=none;gradientDirection=west;" parent="1" vertex="1">
          <mxGeometry x="71" y="258" width="40" height="20" as="geometry" />
        </mxCell>
        <mxCell id="s1WzBIUqZS0wOWzxxjqr-2" value="Pod" style="rounded=0;whiteSpace=wrap;html=1;strokeColor=#7EA6E0;fillColor=#EDEDED;gradientColor=none;gradientDirection=west;" parent="1" vertex="1">
          <mxGeometry x="160" y="240" width="40" height="20" as="geometry" />
        </mxCell>
        <mxCell id="s1WzBIUqZS0wOWzxxjqr-3" value="Pod" style="rounded=0;whiteSpace=wrap;html=1;strokeColor=#7EA6E0;fillColor=#EDEDED;gradientColor=none;gradientDirection=west;" parent="1" vertex="1">
          <mxGeometry x="220" y="240" width="40" height="20" as="geometry" />
        </mxCell>
        <mxCell id="s1WzBIUqZS0wOWzxxjqr-4" value="Pod" style="rounded=0;whiteSpace=wrap;html=1;strokeColor=#7EA6E0;fillColor=#EDEDED;gradientColor=none;gradientDirection=west;" parent="1" vertex="1">
          <mxGeometry x="220" y="280" width="40" height="20" as="geometry" />
        </mxCell>
        <mxCell id="s1WzBIUqZS0wOWzxxjqr-5" value="Pod" style="rounded=0;whiteSpace=wrap;html=1;strokeColor=#7EA6E0;fillColor=#EDEDED;gradientColor=none;gradientDirection=west;" parent="1" vertex="1">
          <mxGeometry x="160" y="280" width="40" height="20" as="geometry" />
        </mxCell>
        <mxCell id="s1WzBIUqZS0wOWzxxjqr-8" value="" style="shape=cube;whiteSpace=wrap;html=1;boundedLbl=1;backgroundOutline=1;darkOpacity=0.05;darkOpacity2=0.1;strokeColor=#7EA6E0;fillColor=default;gradientColor=none;gradientDirection=west;size=10;" parent="1" vertex="1">
          <mxGeometry x="320" y="220" width="160" height="90" as="geometry" />
        </mxCell>
        <mxCell id="s1WzBIUqZS0wOWzxxjqr-9" value="Pod" style="rounded=0;whiteSpace=wrap;html=1;strokeColor=#7EA6E0;fillColor=#EDEDED;gradientColor=none;gradientDirection=west;" parent="1" vertex="1">
          <mxGeometry x="340" y="260" width="40" height="20" as="geometry" />
        </mxCell>
        <mxCell id="s1WzBIUqZS0wOWzxxjqr-10" value="Pod" style="rounded=0;whiteSpace=wrap;html=1;strokeColor=#7EA6E0;fillColor=#EDEDED;gradientColor=none;gradientDirection=west;" parent="1" vertex="1">
          <mxGeometry x="425" y="250" width="40" height="40" as="geometry" />
        </mxCell>
        <mxCell id="s1WzBIUqZS0wOWzxxjqr-11" value="&lt;font style=&quot;font-size: 20px;&quot;&gt;&lt;b&gt;&lt;font style=&quot;font-size: 20px;&quot; color=&quot;#FAFAFA&quot;&gt;HPA&lt;/font&gt;&lt;/b&gt;&lt;/font&gt;" style="rounded=0;whiteSpace=wrap;html=1;strokeColor=#7EA6E0;fillColor=#5E5E5E;gradientColor=none;gradientDirection=west;" parent="1" vertex="1">
          <mxGeometry x="60" y="200" width="70" height="40" as="geometry" />
        </mxCell>
        <mxCell id="s1WzBIUqZS0wOWzxxjqr-12" value="&lt;font style=&quot;font-size: 20px;&quot;&gt;&lt;b&gt;&lt;font style=&quot;font-size: 20px;&quot; color=&quot;#FAFAFA&quot;&gt;VPA&lt;/font&gt;&lt;/b&gt;&lt;/font&gt;" style="rounded=0;whiteSpace=wrap;html=1;strokeColor=#7EA6E0;fillColor=#5E5E5E;gradientColor=none;gradientDirection=west;" parent="1" vertex="1">
          <mxGeometry x="320" y="200" width="70" height="40" as="geometry" />
        </mxCell>
        <mxCell id="s1WzBIUqZS0wOWzxxjqr-21" value="横向伸缩" style="text;html=1;strokeColor=none;fillColor=none;align=center;verticalAlign=middle;whiteSpace=wrap;rounded=0;labelBackgroundColor=none;fontSize=14;fontColor=#000000;" parent="1" vertex="1">
          <mxGeometry x="90" y="280" width="60" height="30" as="geometry" />
        </mxCell>
        <mxCell id="s1WzBIUqZS0wOWzxxjqr-23" value="纵向伸缩" style="text;html=1;strokeColor=none;fillColor=none;align=center;verticalAlign=middle;whiteSpace=wrap;rounded=0;labelBackgroundColor=none;fontSize=14;fontColor=#000000;" parent="1" vertex="1">
          <mxGeometry x="350" y="280" width="60" height="30" as="geometry" />
        </mxCell>
        <mxCell id="s1WzBIUqZS0wOWzxxjqr-24" value="" style="shape=note;whiteSpace=wrap;html=1;backgroundOutline=1;darkOpacity=0.05;strokeColor=#7EA6E0;fillColor=default;gradientColor=none;gradientDirection=west;align=left;" parent="1" vertex="1">
          <mxGeometry x="530" y="220" width="240" height="90" as="geometry" />
        </mxCell>
        <mxCell id="s1WzBIUqZS0wOWzxxjqr-25" value="Pod" style="rounded=0;whiteSpace=wrap;html=1;strokeColor=#7EA6E0;fillColor=#EDEDED;gradientColor=none;gradientDirection=west;" parent="1" vertex="1">
          <mxGeometry x="550" y="242" width="40" height="20" as="geometry" />
        </mxCell>
        <mxCell id="s1WzBIUqZS0wOWzxxjqr-26" value="Pod" style="rounded=0;whiteSpace=wrap;html=1;strokeColor=#d79b00;fillColor=#ffe6cc;gradientDirection=west;" parent="1" vertex="1">
          <mxGeometry x="630" y="242" width="40" height="20" as="geometry" />
        </mxCell>
        <mxCell id="s1WzBIUqZS0wOWzxxjqr-27" value="Pod" style="rounded=0;whiteSpace=wrap;html=1;strokeColor=#d79b00;fillColor=#ffe6cc;gradientDirection=west;" parent="1" vertex="1">
          <mxGeometry x="690" y="242" width="40" height="20" as="geometry" />
        </mxCell>
        <mxCell id="s1WzBIUqZS0wOWzxxjqr-28" value="Pod" style="rounded=0;whiteSpace=wrap;html=1;strokeColor=#d79b00;fillColor=#ffe6cc;gradientDirection=west;" parent="1" vertex="1">
          <mxGeometry x="690" y="280" width="40" height="20" as="geometry" />
        </mxCell>
        <mxCell id="s1WzBIUqZS0wOWzxxjqr-29" value="Pod" style="rounded=0;whiteSpace=wrap;html=1;strokeColor=#d79b00;fillColor=#ffe6cc;gradientDirection=west;" parent="1" vertex="1">
          <mxGeometry x="630" y="280" width="40" height="20" as="geometry" />
        </mxCell>
        <mxCell id="s1WzBIUqZS0wOWzxxjqr-30" value="&lt;font style=&quot;font-size: 20px;&quot;&gt;&lt;b&gt;&lt;font style=&quot;font-size: 20px;&quot; color=&quot;#FAFAFA&quot;&gt;Cron HPA&lt;/font&gt;&lt;/b&gt;&lt;/font&gt;" style="rounded=0;whiteSpace=wrap;html=1;strokeColor=#7EA6E0;fillColor=#5E5E5E;gradientColor=none;gradientDirection=west;" parent="1" vertex="1">
          <mxGeometry x="530" y="200" width="100" height="40" as="geometry" />
        </mxCell>
        <mxCell id="s1WzBIUqZS0wOWzxxjqr-32" value="Pod" style="rounded=0;whiteSpace=wrap;html=1;strokeColor=#7EA6E0;fillColor=#EDEDED;gradientColor=none;gradientDirection=west;" parent="1" vertex="1">
          <mxGeometry x="550" y="278" width="40" height="20" as="geometry" />
        </mxCell>
        <mxCell id="s1WzBIUqZS0wOWzxxjqr-33" value="" style="swimlane;startSize=0;labelBackgroundColor=none;fontSize=13;fontColor=#000000;strokeColor=#7EA6E0;fillColor=#5E5E5E;gradientColor=none;gradientDirection=west;" parent="1" vertex="1">
          <mxGeometry x="40" y="340" width="760" height="80" as="geometry" />
        </mxCell>
        <mxCell id="s1WzBIUqZS0wOWzxxjqr-34" value="" style="shape=image;verticalLabelPosition=bottom;labelBackgroundColor=default;verticalAlign=top;aspect=fixed;imageAspect=0;image=data:image/png,iVBORw0KGgoAAAANSUhEUgAAAPAAAAC2CAYAAADnVADjAAAKJ2lDQ1BpY20AAHjanZZ3VFTXFofPvXd6oc0w0hl6ky4wgPQuIB0EURhmBhjKAMMMTWyIqEBEEREBRZCggAGjoUisiGIhKKhgD0gQUGIwiqioZEbWSnx5ee/l5ffHvd/aZ+9z99l7n7UuACRPHy4vBZYCIJkn4Ad6ONNXhUfQsf0ABniAAaYAMFnpqb5B7sFAJC83F3q6yAn8i94MAUj8vmXo6U+ng/9P0qxUvgAAyF/E5mxOOkvE+SJOyhSkiu0zIqbGJIoZRomZL0pQxHJijlvkpZ99FtlRzOxkHlvE4pxT2clsMfeIeHuGkCNixEfEBRlcTqaIb4tYM0mYzBXxW3FsMoeZDgCKJLYLOKx4EZuImMQPDnQR8XIAcKS4LzjmCxZwsgTiQ7mkpGbzuXHxArouS49uam3NoHtyMpM4AoGhP5OVyOSz6S4pyalMXjYAi2f+LBlxbemiIluaWltaGpoZmX5RqP+6+Dcl7u0ivQr43DOI1veH7a/8UuoAYMyKarPrD1vMfgA6tgIgd/8Pm+YhACRFfWu/8cV5aOJ5iRcIUm2MjTMzM424HJaRuKC/6386/A198T0j8Xa/l4fuyollCpMEdHHdWClJKUI+PT2VyeLQDf88xP848K/zWBrIieXwOTxRRKhoyri8OFG7eWyugJvCo3N5/6mJ/zDsT1qca5Eo9Z8ANcoISN2gAuTnPoCiEAESeVDc9d/75oMPBeKbF6Y6sTj3nwX9+65wifiRzo37HOcSGExnCfkZi2viawnQgAAkARXIAxWgAXSBITADVsAWOAI3sAL4gWAQDtYCFogHyYAPMkEu2AwKQBHYBfaCSlAD6kEjaAEnQAc4DS6Ay+A6uAnugAdgBIyD52AGvAHzEARhITJEgeQhVUgLMoDMIAZkD7lBPlAgFA5FQ3EQDxJCudAWqAgqhSqhWqgR+hY6BV2ArkID0D1oFJqCfoXewwhMgqmwMqwNG8MM2An2hoPhNXAcnAbnwPnwTrgCroOPwe3wBfg6fAcegZ/DswhAiAgNUUMMEQbigvghEUgswkc2IIVIOVKHtCBdSC9yCxlBppF3KAyKgqKjDFG2KE9UCIqFSkNtQBWjKlFHUe2oHtQt1ChqBvUJTUYroQ3QNmgv9Cp0HDoTXYAuRzeg29CX0HfQ4+g3GAyGhtHBWGE8MeGYBMw6TDHmAKYVcx4zgBnDzGKxWHmsAdYO64dlYgXYAux+7DHsOewgdhz7FkfEqeLMcO64CBwPl4crxzXhzuIGcRO4ebwUXgtvg/fDs/HZ+BJ8Pb4LfwM/jp8nSBN0CHaEYEICYTOhgtBCuER4SHhFJBLVidbEACKXuIlYQTxOvEIcJb4jyZD0SS6kSJKQtJN0hHSedI/0ikwma5MdyRFkAXknuZF8kfyY/FaCImEk4SXBltgoUSXRLjEo8UISL6kl6SS5VjJHslzypOQNyWkpvJS2lIsUU2qDVJXUKalhqVlpirSptJ90snSxdJP0VelJGayMtoybDFsmX+awzEWZMQpC0aC4UFiULZR6yiXKOBVD1aF6UROoRdRvqP3UGVkZ2WWyobJZslWyZ2RHaAhNm+ZFS6KV0E7QhmjvlygvcVrCWbJjScuSwSVzcopyjnIcuUK5Vrk7cu/l6fJu8onyu+U75B8poBT0FQIUMhUOKlxSmFakKtoqshQLFU8o3leClfSVApXWKR1W6lOaVVZR9lBOVd6vfFF5WoWm4qiSoFKmclZlSpWiaq/KVS1TPaf6jC5Ld6In0SvoPfQZNSU1TzWhWq1av9q8uo56iHqeeqv6Iw2CBkMjVqNMo1tjRlNV01czV7NZ874WXouhFa+1T6tXa05bRztMe5t2h/akjpyOl06OTrPOQ12yroNumm6d7m09jB5DL1HvgN5NfVjfQj9ev0r/hgFsYGnANThgMLAUvdR6KW9p3dJhQ5Khk2GGYbPhqBHNyMcoz6jD6IWxpnGE8W7jXuNPJhYmSSb1Jg9MZUxXmOaZdpn+aqZvxjKrMrttTjZ3N99o3mn+cpnBMs6yg8vuWlAsfC22WXRbfLS0suRbtlhOWWlaRVtVWw0zqAx/RjHjijXa2tl6o/Vp63c2ljYCmxM2v9ga2ibaNtlOLtdZzllev3zMTt2OaVdrN2JPt4+2P2Q/4qDmwHSoc3jiqOHIdmxwnHDSc0pwOub0wtnEme/c5jznYuOy3uW8K+Lq4Vro2u8m4xbiVun22F3dPc692X3Gw8Jjncd5T7Snt+duz2EvZS+WV6PXzAqrFetX9HiTvIO8K72f+Oj78H26fGHfFb57fB+u1FrJW9nhB/y8/Pb4PfLX8U/z/z4AE+AfUBXwNNA0MDewN4gSFBXUFPQm2Dm4JPhBiG6IMKQ7VDI0MrQxdC7MNaw0bGSV8ar1q66HK4RzwzsjsBGhEQ0Rs6vdVu9dPR5pEVkQObRGZ03WmqtrFdYmrT0TJRnFjDoZjY4Oi26K/sD0Y9YxZ2O8YqpjZlgurH2s52xHdhl7imPHKeVMxNrFlsZOxtnF7YmbineIL4+f5rpwK7kvEzwTahLmEv0SjyQuJIUltSbjkqOTT/FkeIm8nhSVlKyUgVSD1ILUkTSbtL1pM3xvfkM6lL4mvVNAFf1M9Ql1hVuFoxn2GVUZbzNDM09mSWfxsvqy9bN3ZE/kuOd8vQ61jrWuO1ctd3Pu6Hqn9bUboA0xG7o3amzM3zi+yWPT0c2EzYmbf8gzySvNe70lbEtXvnL+pvyxrR5bmwskCvgFw9tst9VsR23nbu/fYb5j/45PhezCa0UmReVFH4pZxde+Mv2q4quFnbE7+0ssSw7uwuzi7Rra7bD7aKl0aU7p2B7fPe1l9LLCstd7o/ZeLV9WXrOPsE+4b6TCp6Jzv+b+Xfs/VMZX3qlyrmqtVqreUT13gH1g8KDjwZYa5ZqimveHuIfu1nrUttdp15UfxhzOOPy0PrS+92vG140NCg1FDR+P8I6MHA082tNo1djYpNRU0gw3C5unjkUeu/mN6zedLYYtta201qLj4Ljw+LNvo78dOuF9ovsk42TLd1rfVbdR2grbofbs9pmO+I6RzvDOgVMrTnV32Xa1fW/0/ZHTaqerzsieKTlLOJt/duFczrnZ86nnpy/EXRjrjup+cHHVxds9AT39l7wvXbnsfvlir1PvuSt2V05ftbl66hrjWsd1y+vtfRZ9bT9Y/NDWb9nffsPqRudN65tdA8sHzg46DF645Xrr8m2v29fvrLwzMBQydHc4cnjkLvvu5L2key/vZ9yff7DpIfph4SOpR+WPlR7X/aj3Y+uI5ciZUdfRvidBTx6Mscae/5T+04fx/Kfkp+UTqhONk2aTp6fcp24+W/1s/Hnq8/npgp+lf65+ofviu18cf+mbWTUz/pL/cuHX4lfyr468Xva6e9Z/9vGb5Dfzc4Vv5d8efcd41/s+7P3EfOYH7IeKj3ofuz55f3q4kLyw8Bv3hPP7BwWMTQAAAAlwSFlzAAALEwAACxMBAJqcGAAAAAZiS0dEAP8A/wD/oL2nkwAAPdpJREFUeNrtXQecXFX1fjO7oQl2/SsqKJIEUrZvEohUBbFQFKRKkRKSrUmQ0KUpTaSjFGkSQYoCgqD0KtIRhJCEkLK7U7amJ7s7M+9/vvvumb379rWZnd2d2b3397u/3Z2dee/Ne/e7p33nHMPQo2BGWV2LUVEfNcrrMCOhivpIcUVDNFRa32qU1LVuSf87rLw++jd6PUYzISf9Hn2Y5s/KauNbldfGjcp667Pl9bFQOY5XH6EZ0zdYDz2GYpQSYCsJaBX0s6wuCvAVVTREQni9rDa6JQH6GHrtHZqmz3yXgH8sfW6rqdgEGmJ0rGgRfT6ETaGiLibArIceeuRglNdGjO8aIaPkrHUErGgYwK2sbwkJoNVFtyXwzabXFktwpuRMyJ+m8npC+T9eW0xArSmri29bLjaHJgJyC4AcLreODQmvH4AeemQF3PoWAi+kawRACgNcFaTulpGqXFYX+xyB73QC4XIbQJMBJHDSBvAVtDGcQaD9PDaFKpLqpF4LIJfVrjKMI00BZj300CMIcEnqTTqx2Zh5bjtU2TDARCALwT4loH2FVOiz6O9IFsD1A3KUzncuqedfpY0CdrYlkYXUbzEqG5qxcegHpIcebsCtaowRUMgOJeCSfVtEtm2otCZK9m9kewLXFfR6Rw6A6wfkTgLtlSR1v1YuHGZSIpOdvMf8VUbR4RuEPa6HHnrQEE6pORFj58PaIPUgbYuqG6Oh6gaoztHx9Pf1NLscbFkzx9MO5NU0b6RrmCgkcH0zAblF2OCQxGXC2aWBrMdYlbgNBIIGsmcb26AqF1U2EDgaoyKUQ2rsFALKbTQ3DgNw7RPn6FXOtYnmHXRNJTMIyLvVNwsNgTSGoglHJY2ymph2dukxllRlADROzqk4JBgkbnjmmW3G7md34e8qAvM99FqPC5iGc9o3DVzTfXSN1dW/ud8oP+MtoV5DayizQltaIusxioFbby3wMsRy66PFAO702e8b0099D6/PpL8fl2AdbombKZDx+z9Jtd6zel6TUT2/GQ6usIglk+OrrF6r1nqMKomLUJCwGQX5Aou9pK7dKKltD9NC/yG99i/FGZXMI+D6qda41qfpO/x4am20iKZRhfi0sJHBDItbG5ZWr/UotAHAEr3RsnMlcEF3LKlvN0rr28bRwj6IXnvF5kDqzUPQeklk1QP+Kn2nn5TUtW1RUt+J727RNCW7S8eR9SgQNdly6FhT0h3JTiytbTVobkmL/ChSNd928PyaBTrtQP4vzWOn1sW2mkoOuspGspEbQNMkAoq0kSs031qPfFSTyynsUyYSAizgVs2FPUjOqvr41vTaKfTaolEEXD8gL6ZNbA7FsT+FzazS4lsX496UN8aN6tPatedaj3yQuK2GcbFpVNUtAYjDlsRtCZXVtoAC+XlatPPotaU21XM0AdcJyKoNv4zm6aSZfLE8ze6KWnxrsdlFtHqtx8h4lCtIglRYqnKYforMoDIhhWNfokW7IEd0x6xnVWPErGygSb9XNw47kO3OOKQznl1eH/9yBanWVY1ECmmwaJpVFFferXG5TmXUYziAGzGm1GKhdQsyAzGTisBQQuIBeVu3p0V6Gb3eOpLAxQRwJ57SYpbURMySWvp9VrN4bQQksh3I7XQPryTH3tfLhEQGTRMZUJHwxNlxYxKRQjRNU48hsHHJOVVDjKk5HUpKX1QmGMR2or+vdqA7JkdCjQVQJ5/aYp59Z6f5/ooe838rus1z/9RlTp7dMlIgdqFpRq+nmPj4ioYmQdOsEHxrCkGB2VUb06q1HoMfiGFOqWsyvj3nE8GaqhRSl6iEdc1YYER3jN5CC299HrCm0mrzLrNazMabOk2MVMqaGL/8Y6eQyiOgTnuRQjbQPbydJHDp9LlNxjQihjBNcyqBuESw1rSzS48sVGWEPUrrIpKnTKyp+ctogS0CcEtp0d1NC60731hTlMsrAPz8e5sEaHsS1sT494ebzUkkmasa8pIUQr9H76VNsmLKvMVG6dylkMqC3VVCBBHMMi2R9fBXlSVrqjYqM4NawtPmx4guGJN0x+jf84Sn7Kw+04Td+7+VPQK0yZQ1MZZFe80CYHfh98dJAu+959wlxp7zlsBRKJyEsJnL6jUpRA8XG3f+3YcaM7BgrFBQeMLsJmPi7FWgO35P8pST+QrcfvYv2brvLuu2AJzsA/AHBGqAuzK/2V0p5e8n6d7/YMrseNGUOTEAWdjJJRRbFzRNDWQ92M6VU1SgmFzTYUypiRMNMHIgSdyXPBwxeTdh3044udl89LUNArSJpDUxnnx7o7CBqxoLjqb5HzJjfkKEmHFlda2G5eziSpoaxGMcvFE5wRRqJhL+CuzsB9AiebMQWVMA8M4nNZvXPLx2AIB//9ha8b/qxsJkd5WjmmZ99MCKuYJnHhasLg3iMQxeIhSUUjI9ytZMPy0eMmYuoUqPkWsKme5oSeAW88w7OtMqNAMYoaTxJxcUgF3YXdEbJ9V3hHdrWAUAh/Y8q1XTMsckgKnaI4j1qIRBE6rZdYojpSDpjhxGOuW69gFhpDk3dIj/VTUWLE0z2edAjN5cXb+K0hebwhYhREvhMTemUmof1aMqqhDpbrHjFPCmCpWLjBDRJHJiHXFpm5C+6jj6irZ8CiMN1mttktQ9iX4KmxhRgzJiw+kxRkZFjZU1RK1I0I5kGyVTKFnAi1uAcwoB+CcXtZrdvak0eHsTKfPQX7cKD3WBAzj9jMgm/nhqfXy7qSLjy8o71mPMOK+selTSCXLIaAAvAxgg/fEFcbNHAXCCyBwHXxQfLQBmu5hAHD1CPsMipG7qMUZGaW1MxnuFJL5JUZ8LckEj/gvbdsa8iFCTL7539QAix2X3rzZ3pf/hPZypVOgAllRWK7TU0K4X9tiRwLHQF44wjbk3PQAHyFuFJoEhReFNZo/y1DktApw7Ht9s7n5a1Fy3MTXAibV+U8rca0HU3IHeA5CD1MGe6+rCA7R8VtE3X/zHDcYXj9skGr7plT0WwDunybAaeAla3o60ENYpDpK8lrIMtCkEWISEEDIiAoq53zkx88Sr20X46O5n15tuYyH973RKajj+d23md8+KCRBbx2kWx6xqKBgw87NaR8DdocwqYxQua9A5xaN+oIqGxXMWttOP8136VkkJCSkLIgaAdtCFcfNXd3eZf/v3BnNRU4+5YXPKzHSs25gUqYb3vbiegN9lHnBeXEhmABrALgAgS2dW7EC5GRfp1T0WAFyHFibUFNsC8IWDtX9VyZjLRV8l7VqoxpCQPzgvJuzYN5d2m5t7BgIWqjJIG/bwkTqYmeUEd2wCL3+w2TyfNoZ9zoyZO9M5hdOrMZIzxxd/J7ViyCCOx8/scmkHF09u1BJ4DACY6hc3toRpAUES/7O/UyRz8KLiBaugE06xFv1g2E68EQC4uxLx4ujL28zHiNu8YVN/ZDLLCk6qzOWvBfhkqu8Y4jX5v671SfOe59YLz/UE4k+L7zR3cIDDd0KMGmQSqhlGvOxmc2rNoIoMsCPrxaq5zQYVmdehpFEP3pqVRnlfJY3P2epWZQ5eUjXhGIJt+frizebfXulb9NmAGJ8RdimpyiBeIK+3N9lfgiaT2QE2CKBVMGNs6k6Zf//PRqGyf5uuCfZ2tt8Lqvnhl7aaT7y50Xx/ebf50KsbzO+dHRMbX5Yg5mfWSmysL8v2q9qRNfptYMR/BYB3p917UM4romOKRHkGF9uW9X/oECCe1phZGAiLHOrrAy9vSB+PpWQqAGpTAf6fygDMfE4A+ebH11IIKpqu6lGZIT8bFUFY9efv9vbH3TlxZtGz3IPjwXqFj+b4r+XAYvu3Plv1mSmLh/2mNS21hH2Z6GM+zb6+XTidps31X+DYCKB+w4vcvjbRD7i+anByoOT0G+nr9ZHmKbP/sVfGe81ZxLMef1JL+j54fTd8d0juhps6rJCWokXwdzv6ilZhLmRpZ7Ma3VghisZHikHS0WPU2r/tSF6g2lZIXhBlcbJyYDHj6RCFsphSbFOWxFCDIVXdQIzXcZxpjVFSVTf0A2XKD1QO4Ma1ODm40v+n//UkUo7OLS/nV0rZTPD7HU+tI1W/RXjG3VRqfDdsYAhvbexOpTcONT6Nje6ng6N4MiPrXtIIDDQiL9PlaUdp/Lc2IggcSNifVNOJ/kSD4j9zPPaZdzdJqduncvJChTMIEoYlcWV9n+qJv6FaHki0x8XNPWkguanKKQeJvGZD0nzx/U3mjY+uNefd0mHuT/Hgv72yoZ+aqv6ORP8Dzo0JdRYq8X8+2kze5+SAzSHlI7kxYPPvfUZMONrYVBB1qBuk5D0R4G0z120aCN5eqan8i+zhQVbL5Gf38eS69i0nU4SBABxCqqgeow3AlLiAkrDSVppsK5FjZuvE2vP0qPnaR5sHgIwX7GoC8UkkhXaiBU1kA5DwzelzLXv3hKvazc51yQGAc5KQDGxIWID27DutcA/HbqGGfvOEZvPhV90B/I/XNwq21q7yMwAPQP9rol6+uWRzGlisBXhdD8aq1l7zJxe3Co8yvhOcXJj4rrU3dpgbN/eBN2X7Hi/Qd9htftQsrR2Udzv97CijrEzGg8N6tY9KCSwSGIolgI8fTPhIVaURCsEivPKvawRY1VpUDGKorhffs1q8f/rcqLnjCU1m3e87Bjh1nCReUqFCgmV18EWtaQBiA2H2FKvjT0uNwAnAAA1sd4CtWsZ3p86JpAkiR13WKlR5ToRIptw1Aj4mtIyf/7ZNfKeZROPcnUB55V9X998MlO8R70qYF93TJc5XWpOT5Aq2g0+ukL2Xy09brRf8aBtTa+LCRqq0gv6/z1UCg1iADRYI9oUH+aUN6cXKAOAZ6UiYH67qMf/wj7VC/VVtZic7l4ECtfiHv4qLc0x2oTxyQbtXPtg84Lj8+xskZe1hG5WAwtL8Z5e0ms/KjSDl4UxLKKC8gdT45bFes31N0vJ2p/pLctjedz29zvzOL6MiTMbqdg4IIr2c5K/t4FEdPoob+857yphR/z/s0v/OhQQeGMO16I4nX9MuyrgyeFLmQC9xykW6qYCBbXzCVW1iwbPDyE1iiZKyRJB4R6lIqUpyrkwJj7dfkgQTLubf0mlGOxOeWoLT9+CNi8+7iDatY8ihJ2LJtTnv1cSm0BvHn/GxYRzZoxMbRmn8N2TVFo59hQDcMRQJDCzNdpGx0keJBMGLXFWJ3ZxV6qKHJBc9jmZ5A9cO4o+aevqBVv0dEhLxZtjilQEoj3Cy7UE2/tPvbOy3GXnFjVOKswrj/pfWC7uYnV1DwK/mWllraJP+OjZqiguHq2ct1Yt+tIxKq9pkkXRy7DPU2UcitltnqdVc4jWZDEbCABBgI+Kz5QGZT5VWiRlzOhEtVsR7BwCYwRQjaYp0w7KAjiPY1dAqdqHmaPB0Bx0sraH67/SL5vQ9GfrEhuiPmNBRTu1v9Bglo6J2VZrAQfPc4Ujgx+KHd7aWnFWm6U20YICtpdgx4qbpsFNDcMkPR9p3SFqyyptyADA83vucYaURBj02q9XfJvLGabd2Doh7uznfMED6gDbiR2bJoR18CSc26J5KoyqEFDWqqb8RLUbkjT6Za/vX00tNtiuTNJJJbwCvJsdW401W9chMeMcc0kKOL3vCnQCMjCOkDU7NgH+Ma8DmgGs64/ZOQav0AjBLX6QpcjbTMFboeLqams9No26HusTOqLJ/I6FS0awsigSG6HAk8AMgrAJ/sLLHVwqroHiI8nynz7NAE0R6MakEnupNPQMBllKK2yFuG4T5BLUcNiu4z/AcIwnBvjF4Sd+3KO2xfNgT/KNRolJ+XtQ8I9LOlFOW6MU/ShxYsoBdbMZwd0lARwQ/ooZT+GgFOZyO+53lufXjHTO186cXg5vtLSFB7/TjHrPU3JkIGVCDWzoSvkwxe6ojxm8fXDOc3SBSstzsTK6TVVqnw0mFb//O61Dt3znDoT6zRPwRSURwot0klx9JAoQKOI+g8nrlGQOMACVCNX529snXtnsWeIfURTwYObu3P7kuDcaEj/rv9FrH2qQo91NSMyzNxdkOnsd2cKlWo0dH/BdNyypEAkPkjuFwYHH+65+fW++++FPO8WEn3vEbS7qFeox4sFMlC7yGcNMspSODm2qLzCCnRt8ipVESUg6hnOb3lnf3JTp4XGPKpaAAX/sf/7VOXPcwSGFObLjfInS0FCH7TI/CB3Bocv0GY0K9iYbR7w11DaxK6bj6PiUNrPWQvvDmxroSvs4tBgKYW+f+qVNU/yi1kSE453b+rZ2ux+PXzr6zc0CPpGmykAAk86//sjpdY8tL7efjwevd7VLihz3fVgG9IZfC/EyXltTGt0LpYJ3gX+CjuqFJVCuU8d/x9HA3D0cMGFLsliecbV9e+E+9s0lwh5HUHgQsDIjHXtsoYrnpxPoGzmxqNs+5q8v1WPzaRcTJRu4xh6kY/HstiBFhY9MADrbT4Cohry7aLLjPLzvQN9VzXvvwsNjC6Sbh5OuYLIs26MSGQh4ls5cqBdwjRw61/QvPLcI/yLJZ2do7MJyjLGzUukLWDhY18457A+bkIgsItixAwdk8Xz/WW2Xn1+59fr35jeMsxxikLo6BWLVKmXRNaVSO8/gbG8UxdpJpg14e6Y8jPeJ7+jHAchdOih0jfR66QkdBx3+F/WsBmB7m1UNt/1bJsEudJG/YgcCL/19vWc22ESoCAOGgevDl9YE8vWq6InJ6QXUEOFDNw4tkwa/BMYaStJDiUG3/RAkGfkkLdvCiBhjHqgVhZVZfXrRdCvN3QYWSYWgwzo6sq9mRVV7XoYFQsB5oAnBl3SchUCnpob401BKYnVdOSfUqiMC2Ep5g6ThCvBSsLQDSrjJ7OY8wWlcnzKbWREYldfBZZBCl0x9T3udTOdrXkDoMlVvlTINtVXOj96b1INX5Gob+xOzI+ve0+Z8YM365GPFgDYSCVJ9PXQT7V5QaJSbWl+nBtg+l/ct0Rkg2JzqjmhEEVdL+2UrhAW4xLyEnUsqWzePnSPLKbnKSpPZEBz9apCV9U+YFC7tEpQ27JxzfB2BeFulx5WE3tSWEaVE2tGp0X8eG+vgOZaJzYSxcXqtplYWnPte1qB0I9x9q73O6ufa17Z6S6BoXh06llOAAiFrBMRmksF0WdWaDAJ7PjWICMAvAh3aqSMnXjTxnL4fccVe2DaaAXWaJDXXRQ3THhkIOH6kdGOpi5w21/cve5+seGbiI1YJ3qGTpRWWc1mhJYqjZqzf4l9sZqsHnbCcyBggiXhU2q2QxADQW9zoWqpYMgze6V6rRv0knNtS3aUAUHIAb28j+bQ7ThP3796G2f1kCc+5swiGhHgn6QdP4YC/+9Ndxs7m9d9hBzOdC/jB6DU/0ySjidEZ0b0gXMkgNPN5TdG8mDL0ji5/xE5X1q4yqhpXhck3oKKxReupymcAPGyj+KQLw8qFUoStVO9BjAT9CBeeCemIBGGwI+1H3Aqckfb+EgpRtZvJZjPc+6abUw6hQeYMkVDAbDIXz3DawT1BQQCZ5DAOhY1VZffTTZZYJpQkdBQVgUZUhGsbDo1mqODeGzIE1tcZq8+nEfU4o5P5MaIXVslAdOiK8IwkfvhlNqez+px4b3SYAyClzgreIYRPid39bM9CEUNMZz80snXEwk4gcldIHogkdheXAagNxgypQgsARPXHI1WeZTHD0Fd6EBjiCJmbYN4njrEgD7E0Ey8UFWQN26yxyqGEeQ1Uj7/HiZSsgQyz5R+fHrRI4czPzAeC7+RUwOPa3w+LI4nDSnHSlyrplGhiFMqY2dCgVKKN3DIcDC4sXPZG8Fi+qPU7KcPFyiAkhmJhDeMoOXjREwzlwPQAhJv/+7H83uVfCTPVxm3EujlFn2q0CnRacUhr5nsy7uTPr5m9Z2MH30r0T3TjKdOfCQpLA0dCkOW3GhNmdaOT9wVCHkJjAwVzkpIP6iCLnKKIeRH3kMjZsL4L6iOLwfqoxnE4oNI/EAUhP0du3sa+2FRLzYYe6bTL8EkgZXzu2yaJpyu/nZ7erVUGckjj4npy/cPVwEDr4WS8pqY1tKRIbdKXKwhkVogODILNPHM4Eht8QCcPN/utclxC0R6dOBJxUwIsaZV1xPPxE+1K0TYl0OEtftdrGUcSv5iqWTtcIxtSRl7W5quJqHi9IG/ufG0uXyoVDjSuMODUyx99lksgS70q4+gEuf2BYAMwVOkjrik2iKdaERkbBABj8Z2H7HDbU0lcF8BUPuAMYlEe1ImRaysqaUwDeeNmD91BSQ694YI1QhxGH9bJ7VQcRcobd0vYqZRcJvIebjXn1YWICxxtUGgcEjeOpOghnPYFKObWmv6bAJYSmUeeJprZeVwBfRU6uYQCwagcfxRU6SmqaNDjyXn1u6JIEDmH/XjpcCfwA8GX3uwO4bY0lgSuVLgpYyLBPofZCbUXngkUUMuI2pU7cZy8nGRhcAJebBMb/kPTgx/ByS2wAHRI8bxS3+/45Vl8mfG84pTiMBvs5TwDMz/xaBrDmRRcCgYNCSFX1K0NV9aKU7NPDUUJH2MC0kJFr6wbgtcSqQjgIzcWw2OFVvvDPXeaTb29M9wS2O6WC1qDi82EDADiQ5WS/RvRDQh7wXTL7KFCNLqX/sP061m9Kinzgqx5aIzze6PmEGtClVIrHydk2zCq0+sxfnT53mbH7/I90YkP+S99WUYESNYGpAuUX6OG1DkcFSpZuC24bKN14DYPbjP/f/Pg6Qczg1D+71PNLLvAkXyzvEZzkSbP7ujmwmguJj/9xAYFkFswuLvNj/yxeX0VS9/4XN5jnUNdELyfWBX8eNgDzM19Nm/r25cIOjmlHVt5L4IEdGJJDTRiAHQs18uRr2wMRJrKRskETFB6hGtSwoQESAHmSVNUR3nmYytUmc0TJTCnXn8km0yDrXg9TpUru2PB9TvCf8otFGiT5OqbUt6ftX3poZw+1/cvOqOmyG/3hFOdlgKQ8Fn0ymbmUzWSgE+Bjr28wD7+0VVzTo1SGp6d3KM+oSOeUd81rJPZDE5g2t8+bPYSsLE7wP68vsUHzovPY/o0SgSMarrR220dyYf+qIR72GlfKJPzSGks1/fpxTeZZVCwO4ZdUDnGi2qAM/CAVO9Rm4JyW6FtxQwGger5sVHqvc6CzA5x936B7BkmMuDh3TOQCAel7nbvewY8SmQOEjjD6ROuRrzYw2Tgl5MSiuQ09tGWDVaGxiLDA4KAaL8Mn8BoDtADxPtQPGA4c1G7mSo6pbIGqACfhI6FTqWDqbSql/B7gGvxyg1VgBy0g4DRg/6N+F6Qxwlq7nWbFx5lBhvsseiEPvjVLOrGhtKFtW5SZLdN2cF7bv7ICZaxEeXipbCUvFtMB58VEDanbqL7x/dTv5zHKtgHZfwmlBqJkqtpOM5nKzHb0s0dx/PdXdIsMH3R4OPP2LtFIm5uDpwK2agkC3DZqzA3JCDroFZR0ge/6n482i3RGJn54Se6gtrwd+IhJN7cnzP9SHeoXKO6NYnnoq4TEj0MpdxpSOieJDXXR6ZzgXzpbt1zJu1HaGFU7MJwwGPWZkxMuJI/p5p6UL5ECNme2zih8BrWpljT3Cq4yuiGcc1eneRQxpsDCQlhGkDxOtthQUNcbb+7IyFkWZKAoPNTaXeW5wFdGNhJCUgdeGBfAvvbhtdSobaP5LjURR01rL2D72cqwyYNseChJO2n2oJIfmNDR2JfYoEvs5KH0jSklZKN/zNaBxaT8Iy9rTTt+VNWWZ2/CmqmAqii/jHTD5wiof/znOrKbu8yfU3YOcn7FpkHgQS+k8ZIcwVxktgunKfzoVQ5la7MBE3OoVXaYSpcEM2zKbEutxbUB2OA8g5SCggMA9tUUC0ZDtvY1yYyvie9j0uEe8zjhqkFlMPEmvrCygXwkDZGislqd2JB/9i+R1Xea3WFsfcKmEO2y72Rr/zIpg1lVPYmB6qK9WB3A9ML7m9IMpKRHvyBILizEb/3CYmFhYYL+WFE/0IHjxDcGqPemIuwda5ODBjB/tmu9ew+jSgdHHl7jcrjQDuBVxuYDs8Lt+zMgl0V6hVf8w1WIhTs70fq86ZK99dCgSvHINRB9b8q8DUVTG1cb5Q1xbQfnp/2LrJPYN+mBrc/W/uXSOLVKbWd72AeLDNUlYZfCiQX+LyQUMnGQE8xsp6RLV4aLiIGFc8yY5wxUv6yn8+7u8iVjcHeFZMr7fQwstFTJpNgAh3+gYkPFnXuzd1lZxKcPurBVSG4Ux4Pn+WBSzS+ljRK2tp3YotJHa2/sGExNaV4DG4nMsZNYIzqxIb/G9LM3iSC9tHH2G6z3uVJ2LYAjx97nBwsR1RUhgcYrPGDuPLDjCc2icJ1jfyJ5HEifwXQ9RLMzz55KGXiZ1XK3pbXZ+wtefN+7sDtILjsc35zeiPBziiSZQJKDWooi83CaqVL47mfW56KChyR0xA6wstR0pcr8kr6NHWoLlaMGG//lFilTZkfMYwms5/6pS4Q89qWwEWxA9oymVV1bzBiq6BtLnPsF8eI8844uWrzBGUkMFNjMQezad8jRhDTEuZRA/5ZPOZ5suydwIQO3roh8PqjWrGmoQGSbG69xCiWSIVC1Yx5JdC6AkIMaWuzI+rlVpSVSrFGTTwCev1Zt4v3TXFAo2fYDaKAeA7Qltf7J7azmnuWS9ZMu8EbF78DgEv2CGoLzrR94eYNrMgIDCDY5EiegqqJELa53aaTX1z5FuMqrd7BbiuJbS503CD4u6mT5qecMZmycu57aF2/PUekdBvDPJIC1BM5DFhYXsavKdb0rlYGVSYXKj11AwwsbrVS86i33r3bRYu5LNjbUeDeVmM8DjQGAgY2NiQ2FbVQvBxvyf39wXrCic9MkfRShNi/VGXnQey+ICpMk0P1r6GNk5bpuFm3u1ZafRNvA+RhGCoEmV1bbSiysyMfDlcjgJYUvvne1Z48kxI/hBNvFp0YU5xtfet9qV+nLwES2kd2bzKExEFDcbGc+5g1/XyvCRZ7SUmY3AexdLhsKH+8mKgYwTA2+/dhYy8oa4tuWN4hKLdoLnX8SGHHgFtmJMPKb4Ujk95XCtGgXu4RW+G/UkUaP3ZJaf3XRqz40AwiFAexldThbCs43vyociAlPJ/XbrRUobwwlJKVf+2izp/RFaR3Ulh6G5t5BEhp+J5ycDWRq6V5J+Tcqa60C3paXMf5/9NBWjrQUhs3a6KG6JpRm33DiqACxh7Xm3OCeqsgAApPLjfDA14Pi8n5SHM4vr8oe0Ab+9Ix7YYB0aIo0kJ3zQ/pGaG1sX25FKULlurROPkrgiHHM8Q9ZpVMsNtbBShwwNRILiNlV/3xzo+9iB7kf9abscWEBPFKxH3tto7c6TnHUw7lsbaM7w+ygC91rYvFGAFKK00YAuxcNvcFTdt0E5GtwbGUTlspxQr9sdBY5BPRJK1IhEvs1YPJxQH2eXrNcPKhKC8RnDUdJHS8Aw0sLlpMXzZCBAB40bGeWvBz3RaH1jZtTnrbmAy+t9623XC0bpyExw2szAMf5sEv6mrBxeAwlc0BC8VPju4k/fsSl7pvJ8KrOkfMqGizw7nHWx2KN6JGno4wcFDNnrUA5HYMWXHj300SL0YUjaQ9bDq0WUXDOi3yR7qrwwnqx8OG1RSgIKqhb2850vS3iVx8gvcdedrTwZpOtvTfZpfAOe20Idz61Tpyb62vhd5a8bjnC9i6EmXR2GJoOhZG/VM9bQfznprDFlW82dCJDvoPYCiUJr3RFTSf9bN2OHuabIymJ2St9x1Pr0gR+LxA/++4mc+ZpFj0TIHYrxs7vB6UzqK2ZLoH74GrPTQGcbVTLhAkAJ9TCZ/vooY5ahPxOMBewAY2g04qT+N+hHlmfmVLXLrzOsri7BkhhhJSi1uyzhycqBe6SI+GVxoQ6jVrP6oJ3AzESI0AvRA0pJ/AyiPC+mUq96Uzi1K4ecnkN51KniZnUzYEL4bkVBuBrXkQUUWw4pbWRkQIw+zo6KbllapnM/xUMPS15C47YYVRYnekkQyv6Y8WhlRoJexi5vSi/+t9Puj1Lu/LrSNxPl2h1cRZddE9XxlUe01U0b+/03ByQaB+VHSH8rhUcZrSOmTy7ZaS8zspzhQMzKuujtQgHpx4FZw/HERc2KhtXph8kPdQFI61KwymFjBxIK6FOJ717/HrxnRc39WQt6biX0ZtLfRIjPCqNMHjjZE9DW9h1VstIhozYx3FupXjWkeJpc1do8Ba6FEaBO6hSVY0t4RnzRLH3P420UwtZOGg0hjrOXiD2qzv1C0p0Vys8MuVTTRxQp5qwLwq9kxQ+8vLWNEBTGZyfwYueTYdcFCc2WXMegDd6z4x5y4XTCi1mT5y/HT17XYWy4O3hslqLPrdrwxpq/t36KXrYr+WDJAbwXpBpeF4lWZ3UW4SlkCeLsjtTZCYPl93BsZF4AVsUtjF+x2uI7eI93A4FvZqQbeXUCsWzppe032FD739OXJxzWuNIO60ib5fWx7abWt8mCD3YtHVL0VEkiS2nFpL+4wDzeNqtoyPN1IJNDGCxd9qv9KvTQM+lVz7YJGK7Z1OJHjQhQ9wYoSI4oODgAsjBWwbv+nTqDoGw1DPk6YaNm0lFj6RSiO8pagmDRIkRtHnVZ9dKkYddy9jnYRU21At/dIFYtJiUif/CM/0DuQBGlKnFMVbEiTMpk5PyeB9YWSiUB3Aj3osMJi7Ol2k5WTvJA5UzUAML9i42oBEEr/LcYgfJFqJFFXXa4zw6AdwgvJLGtMbmvu4NddH5I6lKq0UAuCTPk29vykgqqsXfkz6VMVP2+s6p4OfAgPccDCtsOEPcUSGTHN+z2OO8X+OH5PNoJtVZF28fpfZwjBwczcImRpX+6rmrsFvfNZJOrbRKPdeKE48nquPLH7hk+WTQt4gdUOocTOXK/8mSO7CdR5BhZfc4L5ze0ETdKFvCZP8au9ev0HbvqA8vUSqZDPCHvlWfINplfGtaCK+MuCS2qH/CO73KwamUGmQHw6D1mlMpd2YWwl9uaYYj4LR6k57jdui2YGWhCftXL/Cx4pmWk8INMQI0nFqRyEg6tdTKG28s7h+bTSqtV5zanXDMOJWJ2p1yaeOitGNRJfC7n3SPdF6v+mzi9Owmyhpo3I1SL+yx59QSFQqL5e69v9zdR8SpxYX0UNRNLdrOIEYyP7o1oMLFkpYe164I/Bl7ofRk0ruoHUJJ9z6/3jyOvNgoiGdvlAaH2F4LYoFL4wxpemB99EfstCrXNMmxO8DYmZFmagnP9NyRUqU5yeDie7sGJA2gXxBCQ3B0IY4LoKN07QULu8wHqcgd+grBgx2k9y+3cgET7NHXNogC9qh0CbsWx8aEM+0+paQuS+PrHhnRLCPptIosKBdVV6LFVVaaIE1N1hizqjTyhtHRkBwhRdX18FBHbx1upxZ3XNiT4rXRzv7c4/cInHAcId46rbGvpvJkWVMZE6otpCMae6PE6wKK9V6wcLV5yX3WvJByeM+kKplzbugQSf8oj4tNYMIpfaQOrm0NZxqOh9fZmcbXgg4O4Dv7pS0OIdPqrmnkhITTCjHfqjr4M7T0HdtOLbKBS2U5nndOXUBgbtuSFstLwymJuZ3LwmfX97GyJGgQH0aljulznatlplud1PS1OmFJPV72WWKgo1Qr5xrzee21rbnyBthVNTd0DJDCaIsycXhpk/wMXqfowba7nNhuOa2I646phx6GZPDgpwhHUEGAb9GCaRkOpxYXRwevOWUL3YApBZs4iOdXLcda7TGDtnIpl5vEMqU0Lqv0aGiWSVH6wTutojE4GssEi47YdIJZpyWvHv2cWlGexdKr+V2pug2ZU4tVZ4D040hPv3AOBiRypqmCudxYUF4WxQLsDi0kMKC5+dSh9UrzfU9arLlommlVoT3OejiDGIujadicWhYDq7/qrBI20FYzk04JuaZ5QiVHexPVOZZuVkbVLVHPeghtYWZanVaOnN66luLK2cuN8toWMnta9GLVwwnAcWPGnEWUS9wOD3VRleXUunkonFpcsO7AC+KiI4Kd37yyVWm9MkJxV1ajnSp3IIx1OBeuaxgyp9WdtMkRay5aBF8F6jmX64qSenjbwzGjhACMmlqf+4lplNa0bUWL6cVcS2IOG13yl/61qfjnw9Qwe+LI5tima3khPux0jdf/fe1Q1H3me/xqaU1063H7bhCsubKGVu200iPYqOgrxyOcWgRq9BxelUunFgMYFRytDKL+3l6Eg0ZKfbZ3RDz68rY+9lbKulbRNuXxdb5tWLJkWkUJtDszW04mnuiFqUcG6rRwlkSUtqXRvelnT7aNw91sTNRf5lQ/Bu+Tb494Zcf+nSHI1n3w5f5SGCmLRxIzbFLuOgiy0ypBYD1Agre4QtMk9cheEgPEzaKfrGxLWZdLexgLH0Cdf2un6JGEhIG/UF3oGfNHtLKjI8UT13LLE+vMFfFeweJCt8Mc27/stJon6peR02ra7E+MilrtsNIjW3uY4o7TG1cZJVRXCU6tSsup9ftcghjA4IbhCCeBHVWWJ+BVr7FcMrcqZXVNXHMOr5GdVrdNa2ghplWkqBRmjHBaaemrx6A805LkQY4U46umMbm2bUuSxM/n0qnFdm5ZXR+zqiLPZqW029krnkPbnAuxv1xa17r1DqcmrULstHmWaY+zHjkBsegpG5VNxOHUiu6Qa6cWF3+vGFuTmVbUPTD+rXIrtzcszRW98PTIvSS2CsULQO9Fi687V06tMTjZadVL9/J75bKWc6UofaQlrx5DFF6qtFLYimWYafZIV/Io4MlOq8aKBosmWd1ohe/00GNonFq1AHCLMaWmy3JqUT0mWoDX50NNrQKb7LS6pYruJ5kORSjAPr1xqS7ErsdQe6aRfhgXTq2Dz28xJs+JbkEgflaDOGOm1csl9a1bf/WUXjirQiU1rTreq8cwgRg2cF3McmpZNbW2J2myfKRrahWO0yrSTH6Eb4J7bhXb12QNPYZdElu1mGgyU2tP+rlJO7V8W3/20D37ruUQTN87vaD0GG4ARyVnWhRXY6fWKdqp5RvvrbfqWJEjUDgENXj1GKEByTFtbosxaU6rQZRCSj8UoZBrtT3sWoj9D0jRhANwCsV8q0WRfQ1gPUYUxBFjh5NWQ6UO7XN6LLTL7Cbwpv+lQTwgXPTC5Nr4Fndd/YpwAGq7V488cmpFZV2tSFjaxV+lRbtMq9Npp9Wqsvr4jmXMtNINyPTIa6dWnXDM7K44tRJjOFzUTfdkb0viRoo0TVKPvB2CUdQgC+MJumXsUHLS9CgLWu38MFpnQjEdEnQvjq6wfANF+KnBq0f+SmGR9EAph4KhRQu2QUjiPWjxLhpD4SX+jkvI1t3HKhQYKZpRQ4yr2hatOuuR51JYSN5WgzNrhH1cF9uGfp9F0vhplIuhuX6UTjSIe4a+5xwiu2wLm5d+D0+a3WlMrWnXBen0KBR7OGagmiLlzIoFTCGmUNV88lTPWUJF42OfIyn0TSqPuuOomnXRHel7f3a/q56i0FA7VGa0/Awju6iqIapboOhReEN2ewCgQyAuAMjIZsIcbQON4lCxhOK84rtaPXtjogi7tnv1KGwgoyUITyzsOoSbWkbXRAhNfDfhvNPqsh566KGHHnroMUZHSM4wzWKaRQX+XcLyOxTLv/XQY1SOYrnYR8MGpMGqx5gdAPFXaFbRPInm4crrhTa2ovltmnvTPI3mpAL+Lnro4TnOovkEzQ9orqHZS9Ok+ZD8f76r0gzKb9G8k+ZzNFfS3EwzIb/LIYq2oYceo2oslos8KX8ygB8sEADz9e0jr5tBi9kjfx5cIN9Fj8zNJvZ1jNln+4EC3FQBSmC+vr0V0Cbld9ESePQN7ZgMKIELDcBOElgDeHSPraXptD/NI8cqqDWA9SiEwb6OQxVfxwqaG+UzXqwlsAawHvn/nB+yrVNetx9qAGsA65H/z/lB+Uy75ZpNaAmsATwU6h57R8NDbJuF8uw4XsdXPcaZ3hc/Cbw4z643m+OHhwvATLd0m2Hbhbq9z+uGBDl2UAD/RL5nS4dz5sqrGfbZIEJG9qy3kHKdbscI+/zfTi8t9liUKp12sPfFL8QTDnj/gwC4yGPdFA3z9Q7ms+FM1kqmAB5qiTKSEjibBRuy3Wj8/g2aFTSraU6l+aUszxNk4YUCLpxsn1koSy3Mfk54jCcYFtOvkuZEmttmcJ6hlsB2CYjNfmd5vZi70vx0lvfF/l78/VWaJTSnyeNPobl9NlpiJgDm38to3kzzepo3KPMamncbVkyWxw40b7K99zqat9Ocrtw8dTF+Rh7rRuUz19K8g+YPbdcSBMDH0tyX5i00nzes2De+9+s076NZI29opotdfegA6tU0/0dzvXINuK+dNF+j+SsJ7kw3Cyz03Wg2yO/wT5pv0fyI5lKa7xgWm+73NOfIheEEgJ3k/fulfCaP0nxVXvMSeU9wrMdpXmlY4ZktsjCl1GfzI3mPwY7rMfqTbCLyuo+nuY3PedwAnJI/u2xrUV1rt9GcZVtrTsfG89iP5kKay6WdbSrnQ9LzUzRPobldwPuighebwO9o/tewWI8p5fgp+Rqew8M0z6BZmksAhxVAfmL7jPr7y7adtdJ2o9VzHG+TjHwO7ESbbZ/jz5xv+4wXgHmus53ftN04/FxL8wK58waRbHytn6N5q8N5Uw4PiK/ljACbBb7XMdJpE3G5dvvkZ/Cm7d7MlgtyY8DjqNf7oQRhUBDzeyrk5mA63Aen+4KF+z2P87gB2G/6aZT8N/jyz2VwvdiQDvK5LyHl/5c4bDr8zOxrk9fSq0HWYhAAhxXJ+JbiBeyVc5N87T/KzlSsPEjece3vP8723pAC4PXymnpsnzkvCwDz9+uV/08qU33NlBL6cz43ju/HBOX+JeSxkspDV2dCORfe/xfFHgo5HNu+iaWU+2f/DuyN5Xt0l6IGYtypPNuk7Thux+q1La4zPCSYHQzHKNKLj5XyuS/8nOb4AM0NwOr9USffwwc9NMpDFK0p6PXyfVngAWJ+rgsDrpGU/B9f801BTD8/AI+TP7eQ6oP95vGCXC6ls121zAcJrN6chA2w6ntYxfuXcvNDLuDdQX5n3pxSto1C3TgStvN02x5Q2OH4X6O5QQGV04aUUKZKg22Qx9hK/rzN6M8N9zuOXRrw9R8aQEL+zOV7Jxz+TmZwniASOOEweR391cX0+oFy3t4Mr5ff/wuP6z3VYY043R917fA1n5BLAN/v8CX5Mx2K3WW/QfkA4ISLCu30eo/PzsqAftIBFCkPVT3potod7GKqON2DoCr0Ph4SOIjqnHRR6RZJZ5ThojWMp7naw7zyOxf/3qQ4/kJDoEKHlE0y6rBuMr3edpo7OphFIWnveh3TzXQxFUyFswHww8p7/ugB3k2K06rYYQfKBwDz63D4vEjzBZrNLjYI/x71WEQnONwP/lyc5nya5TR3kXbdww4PMaH4DIwAKrR9k1kqP/ucdJA1KTb2V2ybrxuAk/I4sLWelT/XupyTr/enDhsbX/N9HusE13iYtDUnS8fihw73hT97rstzdnNiQVt5xmE+Kc99kUOY6FaP632X5tHyWnHNR0gHn9v1/tbB5NxV2eBTDuvrJOmomih//lCaKnim7yu+pNBgAHydh6RJKjHWYheVaiQBzN/pXnmTtlSuD+rlyXLB268vYbPHim276ru24ycVx8bOLp71yxwePp+z2sH08LoHVzqAaBu5CA5W7k2xC4D5eBHFZ6Gq7s94LNRbXDSGcgcNhO/jA7b7wffk04qjy34v37d5h3MVRlK1hU22+8HHesLmzAwpa+Zpl+tdrnjS+b7v5XEfvdTjkLw3gaIUdgAnlEW/wEXSJG0AHOdhE40kgJ3iwCpLCuMoDwA/rlwXv39PF0+iKY/FMc9xcm4pP7uFXJROm+UZtuvzuwcXKH4JL0+2G4D5/C3KQlUl00TFY52y3ZPXbBsTn+Nyl02iQ34XBgDfF1bFZ7iYICkljBIOCGCV2WSfYdv1nuUhycd7XO8UxYdhl6rfUZ4Lxh4emteZyn0fJz9TbGRB9lnsoqOvkxfq5kaf7WNg5xOAD3W4VnVXf8X2flXN2c62Sf3aZQEtU5xGIRcgXWj7LJ/vfgf1KwiAxzkQSooyBPBWLoB8wXaNqn26ncP3fNNlc7o5QAjqdRch8nMHQstgJTBf83O2c6nRAbfr5WfzjO0zfC11NgDv7LARppQozuUK/4AlfXGmxJvFHkZ20sXAbgzgHctXCewErPNdduOE0VdPi9/7qMuDf17avFUydKbOarmrn+0CitcC2sBu98DIgQS22/k3u9wT2Mhftr33K5JI4SSxL5TfvdrlvkyQXn8nQFyQYwCrRKEWl+u9SgKv2uM5Puhyvdc4PJfXXHwzSeV+3idNn20chEvWAHZzYtxk22UKGcD20IeT/byv7b3vZehVDOI1XjrIe5BLAPNnLnEB8CZFJS5W7F8zh5PPeWOOAazav90ZeviDXO+fHa73aJcwUsoWb8ZrK2ieQ/MLGRBnPAGccmEs/XiUSGD+7Pc8Pnugcm3j5E12A3DKZ7oBuEnZEPMFwBe4AHizA4D3CBB+yeS+8DlvHyIAl/mAN9vr/auLg+86B5KIHchJWyTjiCAhJD8V2g3EG6WHzWuXKCQA7xcQwADZKh+TI5PZq3gw8w3A5wcA8DgPb6vd6ZnJ7LZ5vHMN4HIPAA/meu93wATf19Ns9nDCg8jB11WfTRxY5XrGPTy0rdLm82PmeAH45DwB8LEeKvR3bZ7Qj4ZAhf6f8qALCcD83uk5VEedwmW5BvAkh/Wei+u91WedoX7X9Yq/QN30nQhG3UHIHG5x4HsMK9Wp1wPEYJl81sXzyics8fjCC/LEiXWNhxNrsu08z7o4sZ6VIYbd5YIOMnF/d1POUWgAVhfmBg8n1uQs7stMGZO2O3X+5vJdltrixl5OrC/L8JbT9f5OAjyb693B5fx8/fz6l6R0fcdwZ/Dx97vW71m7Afjv8v9HGt5UwAdddgj+eyeHgDl/9o8jCOCQQoBY6qKFNCtsGFYXf++ygFZ5bGaZjEICcFi5Nx+7hILuzsQhE+C7/NnlulqNgcw5J/DyeNfleh8JansGHGpo0B7mw+8/NProlk7cglcztYHt3FGMc11c4b22oLQTQLY1+mh+dvbKB0Yfy2mcApIdcgxgpv9tafSv0mDIa3f7nOqU4Pcf4fH+m5XvziQOdW6hkC+cHnAhApjv/92GO5X1Z8p33cLlvowz+rPd7PeFr+tqw53++F2X5xxyOM4Nhjsd9kQbySKb63XamIuVtbSFcu+2MwZyppOKZ3qcl2DwAzA7Vx5xeEBqitWeHgb8cx425jzlCw6XBObrqnGxhfhzRyrn4M980egjwDvtmA9IrcNPlZskF3ZRgUtgNSXPaX1w6OlsFwKIOraQINzb4X18XbWGe0bcE4ZzFhmu8fO29bKvhy8Dx744gEY1Tq77/TzMSDhBvxkgWnO/yzNaqWAwKwAz+r9m9CUAOC1cZKp82mUxnGe453Ampbo+TwLql1K1drMJsuFC/4Pm6dLuwAL4jdGX15x0cSy973Dj+FyXGs7peUnFSw+2Dpg2cw2LU32a/PsBo49S2WYMzD0uNACr9+YtFxDz+WJyoZ4vn0WN1ICuk+BbrmyChuGcnjfTxfnEf78lY6lzpI/lOhm7f1b5nnzNz/uQLNqkFnahcr1nSJ/JPxSz4Unbs1MJI+3ynj0jj4PcgSpJFkEDvlK5Ntx42a8NVoVW1cfDfezha13iYLt4BM6DegEHm43k5gW2h8n48wd7aBTYzZe4bEqJDL5TQjq+DJudVGg2MN+j77vcg1TA58LX9bqHDbulcu+TAdaSaiN/xmEz6HXwBGd6vYtsai4fvzpAuMpvvV+VrRPLXoKEf97rAhS+yH1cPsfB7G7DmeVlr6SQLYCTLkCxHz/h8h5Tqk9ujhdetLsZfal3PS4LttflvEnDPT2vEAGsXr/qU3BaI173hd8PqfUFF1UYozHDtcQbdZmD6l/j8PwzvV544L9hs3UxTlLuYcJl3aUcyB0JxfSY7OdU+8DoXyLHrQQJH2BHeYPtZXL4c/+22SH8+6dovqR8oV7DuR6QUwUNtaTOBT4A7rYBJeWzA9pv6kUBvKb8v92N/nnFvYr0Sfl8J/4+57jY55mUFfID8G3KguhVVP+VHgD+lcNnkvKatnexyfi+zLc5Y4I+a3XzrvBYuDjvowHWUspGtPiZy9qZpdyTTK+XP7eXg8Z6q3IP1XXhVkqn1wbmmiAe/EyqUvKFNbhI4YThXM0ipHjbFhrOhcOSHjdNPfbpLg9h9wAqedJwT+CHXbp/BiGPIiWmeKuLiZDy+E78fa4eJRLYfl8QH33Zw2zyol2aHs9CFQgLA97zXiUmbb9vfPxSoy/LyG2z96LDHqYcm6/xcQ9t1Wst4rkcGjScBXXxDhkCAXXtJnljajwOsLV0yNyufI4/e6ciJe03no/1Hfm+jxWpYl/ca6QL/Xl5XNQWqjT6J+Xbj4881mMlKFB69SNp+2x2OMdGef57pL07Lov4n+rE2VlKrZel88Op+sVqGXN+XN53eFu3clmgn5Ux51uV+/sHeb0HBtxo+LucIOOnN8nj3Cyf3RWGO2voQHmuPyjnv1Vek593VnXm7CXP+74xsJQqa0xtMozyF6keT/KJpatr6XtSW2x2cCriGcSlkwlO0q97eIsNRRBcL69ntcNG0yM10Pelsw1O1xKXdQMH5UEyZPWm/JyTebhZhlofM6yStZ/JUezc8wZmS1IosrnhvyW9cjPlrJYPcHvDP+MpyHV+VoKrQj6cmXIj+KYxMJ+2KAfficE3SUqhmfInnFVfMcZOfyan+PZXpaTbTd4XPPcJiic+02erHn8buYGr93ySAoZMrxfH/z8JzhnK2pwo7fNsMPB5oy/ldKZyD75t9BUMyHgturWj8DuAV2uVogDnzKSqfdBKBWEj86oGRUZuWohk0nIjaOuSoO1lsn3GxQHvZdDPeJ07k/eGMzx+UQ6fTS6vV22JE8rxGsqLYW/wZG/0FMrB8UNG/zI6Q9Wsyu97hY2BNaDH2hjK5xAagmPn+nq91vtYXhd66KGHHnrooYceeuihhx566KGHHnrooYceeuTN+H+8eN8a5eSPAwAAAABJRU5ErkJggg==;" parent="s1WzBIUqZS0wOWzxxjqr-33" vertex="1">
          <mxGeometry x="340" y="10" width="79.12" height="60" as="geometry" />
        </mxCell>
        <mxCell id="s1WzBIUqZS0wOWzxxjqr-36" value="Application Scaling" style="text;html=1;strokeColor=none;fillColor=none;align=center;verticalAlign=middle;whiteSpace=wrap;rounded=0;labelBackgroundColor=none;fontSize=13;fontColor=#000000;fontStyle=1" parent="1" vertex="1">
          <mxGeometry x="40" y="160" width="140" height="30" as="geometry" />
        </mxCell>
        <mxCell id="s1WzBIUqZS0wOWzxxjqr-37" value="" style="shape=note;whiteSpace=wrap;html=1;backgroundOutline=1;darkOpacity=0.05;labelBackgroundColor=none;fontSize=13;fontColor=#000000;strokeColor=#7EA6E0;fillColor=#FFF0F7;gradientColor=none;gradientDirection=west;" parent="1" vertex="1">
          <mxGeometry x="40" y="459" width="760" height="140" as="geometry" />
        </mxCell>
        <mxCell id="s1WzBIUqZS0wOWzxxjqr-38" value="" style="shape=note;whiteSpace=wrap;html=1;backgroundOutline=1;darkOpacity=0.05;strokeColor=#7EA6E0;fillColor=default;gradientColor=none;gradientDirection=west;align=left;" parent="1" vertex="1">
          <mxGeometry x="60" y="489" width="240" height="90" as="geometry" />
        </mxCell>
        <mxCell id="s1WzBIUqZS0wOWzxxjqr-40" value="VM" style="rounded=0;whiteSpace=wrap;html=1;strokeColor=#7EA6E0;fillColor=#EDEDED;gradientColor=none;gradientDirection=west;" parent="1" vertex="1">
          <mxGeometry x="160" y="509" width="40" height="20" as="geometry" />
        </mxCell>
        <mxCell id="s1WzBIUqZS0wOWzxxjqr-41" value="VM" style="rounded=0;whiteSpace=wrap;html=1;strokeColor=#7EA6E0;fillColor=#EDEDED;gradientColor=none;gradientDirection=west;" parent="1" vertex="1">
          <mxGeometry x="220" y="509" width="40" height="20" as="geometry" />
        </mxCell>
        <mxCell id="s1WzBIUqZS0wOWzxxjqr-42" value="VM" style="rounded=0;whiteSpace=wrap;html=1;strokeColor=#7EA6E0;fillColor=#EDEDED;gradientColor=none;gradientDirection=west;" parent="1" vertex="1">
          <mxGeometry x="220" y="549" width="40" height="20" as="geometry" />
        </mxCell>
        <mxCell id="s1WzBIUqZS0wOWzxxjqr-43" value="VM" style="rounded=0;whiteSpace=wrap;html=1;strokeColor=#7EA6E0;fillColor=#EDEDED;gradientColor=none;gradientDirection=west;" parent="1" vertex="1">
          <mxGeometry x="160" y="549" width="40" height="20" as="geometry" />
        </mxCell>
        <mxCell id="s1WzBIUqZS0wOWzxxjqr-44" value="" style="shape=cube;whiteSpace=wrap;html=1;boundedLbl=1;backgroundOutline=1;darkOpacity=0.05;darkOpacity2=0.1;strokeColor=#7EA6E0;fillColor=default;gradientColor=none;gradientDirection=west;size=10;" parent="1" vertex="1">
          <mxGeometry x="320" y="489" width="160" height="90" as="geometry" />
        </mxCell>
        <mxCell id="s1WzBIUqZS0wOWzxxjqr-45" value="RDS/RW" style="rounded=0;whiteSpace=wrap;html=1;strokeColor=#7EA6E0;fillColor=#EDEDED;gradientColor=none;gradientDirection=west;" parent="1" vertex="1">
          <mxGeometry x="340" y="511" width="60" height="20" as="geometry" />
        </mxCell>
        <mxCell id="s1WzBIUqZS0wOWzxxjqr-47" value="Node" style="rounded=0;whiteSpace=wrap;html=1;strokeColor=#7EA6E0;fillColor=#5E5E5E;gradientColor=none;gradientDirection=west;fontColor=#FAFAFA;fontStyle=1;fontSize=20;" parent="1" vertex="1">
          <mxGeometry x="60" y="469" width="70" height="40" as="geometry" />
        </mxCell>
        <mxCell id="s1WzBIUqZS0wOWzxxjqr-48" value="DB/Cache" style="rounded=0;whiteSpace=wrap;html=1;strokeColor=#7EA6E0;fillColor=#5E5E5E;gradientColor=none;gradientDirection=west;fontStyle=1;fontSize=20;fontColor=#FCFCFC;" parent="1" vertex="1">
          <mxGeometry x="320" y="469" width="110" height="40" as="geometry" />
        </mxCell>
        <mxCell id="s1WzBIUqZS0wOWzxxjqr-51" value="" style="shape=note;whiteSpace=wrap;html=1;backgroundOutline=1;darkOpacity=0.05;strokeColor=#7EA6E0;fillColor=default;gradientColor=none;gradientDirection=west;align=left;" parent="1" vertex="1">
          <mxGeometry x="530" y="489" width="240" height="90" as="geometry" />
        </mxCell>
        <mxCell id="s1WzBIUqZS0wOWzxxjqr-52" value="COS" style="rounded=0;whiteSpace=wrap;html=1;strokeColor=#7EA6E0;fillColor=#EDEDED;gradientColor=none;gradientDirection=west;" parent="1" vertex="1">
          <mxGeometry x="550" y="511" width="40" height="20" as="geometry" />
        </mxCell>
        <mxCell id="s1WzBIUqZS0wOWzxxjqr-53" value="CDN" style="rounded=0;whiteSpace=wrap;html=1;strokeColor=#d79b00;fillColor=#ffe6cc;gradientDirection=west;" parent="1" vertex="1">
          <mxGeometry x="630" y="511" width="40" height="20" as="geometry" />
        </mxCell>
        <mxCell id="s1WzBIUqZS0wOWzxxjqr-54" value="CDN" style="rounded=0;whiteSpace=wrap;html=1;strokeColor=#d79b00;fillColor=#ffe6cc;gradientDirection=west;" parent="1" vertex="1">
          <mxGeometry x="690" y="511" width="40" height="20" as="geometry" />
        </mxCell>
        <mxCell id="s1WzBIUqZS0wOWzxxjqr-55" value="CDN" style="rounded=0;whiteSpace=wrap;html=1;strokeColor=#d79b00;fillColor=#ffe6cc;gradientDirection=west;" parent="1" vertex="1">
          <mxGeometry x="690" y="549" width="40" height="20" as="geometry" />
        </mxCell>
        <mxCell id="s1WzBIUqZS0wOWzxxjqr-56" value="CDN" style="rounded=0;whiteSpace=wrap;html=1;strokeColor=#d79b00;fillColor=#ffe6cc;gradientDirection=west;" parent="1" vertex="1">
          <mxGeometry x="630" y="549" width="40" height="20" as="geometry" />
        </mxCell>
        <mxCell id="s1WzBIUqZS0wOWzxxjqr-58" value="COS" style="rounded=0;whiteSpace=wrap;html=1;strokeColor=#7EA6E0;fillColor=#EDEDED;gradientColor=none;gradientDirection=west;" parent="1" vertex="1">
          <mxGeometry x="550" y="547" width="40" height="20" as="geometry" />
        </mxCell>
        <mxCell id="s1WzBIUqZS0wOWzxxjqr-59" value="Resource Scaling" style="text;html=1;strokeColor=none;fillColor=none;align=center;verticalAlign=middle;whiteSpace=wrap;rounded=0;labelBackgroundColor=none;fontSize=13;fontColor=#000000;fontStyle=1" parent="1" vertex="1">
          <mxGeometry x="40" y="429" width="140" height="30" as="geometry" />
        </mxCell>
        <mxCell id="s1WzBIUqZS0wOWzxxjqr-60" value="COS/CDN" style="rounded=0;whiteSpace=wrap;html=1;strokeColor=#7EA6E0;fillColor=#5E5E5E;gradientColor=none;gradientDirection=west;fontStyle=1;fontSize=20;fontColor=#FCFCFC;" parent="1" vertex="1">
          <mxGeometry x="530" y="469" width="110" height="40" as="geometry" />
        </mxCell>
        <mxCell id="mdKHWk8UxAbJnLGD04xY-1" value="RDS/RO" style="rounded=0;whiteSpace=wrap;html=1;strokeColor=#7EA6E0;fillColor=#EDEDED;gradientColor=none;gradientDirection=west;" parent="1" vertex="1">
          <mxGeometry x="340" y="540" width="60" height="20" as="geometry" />
        </mxCell>
        <mxCell id="mdKHWk8UxAbJnLGD04xY-2" value="Redis" style="rounded=0;whiteSpace=wrap;html=1;strokeColor=#7EA6E0;fillColor=#EDEDED;gradientColor=none;gradientDirection=west;" parent="1" vertex="1">
          <mxGeometry x="410" y="511" width="60" height="20" as="geometry" />
        </mxCell>
        <mxCell id="2NIMT9-MlzPeakHy4V3Z-1" value="Redis" style="rounded=0;whiteSpace=wrap;html=1;strokeColor=#7EA6E0;fillColor=#EDEDED;gradientColor=none;gradientDirection=west;" parent="1" vertex="1">
          <mxGeometry x="410" y="540" width="60" height="20" as="geometry" />
        </mxCell>
        <mxCell id="2yC9SdHh8hurdePPnkhI-1" value="&lt;h1&gt;Application Scaling 应用和资源自动扩展&lt;br&gt;&lt;/h1&gt;&lt;p&gt;基于公有云资源和自动编排实现自动扩展，基于kubernetes实现应用和负载的自动扩展&lt;br&gt;&lt;/p&gt;" style="text;html=1;strokeColor=#7EA6E0;fillColor=none;spacing=5;spacingTop=-20;whiteSpace=wrap;overflow=hidden;rounded=0;" vertex="1" parent="1">
          <mxGeometry x="40" y="40" width="680" height="80" as="geometry" />
        </mxCell>
      </root>
    </mxGraphModel>
  </diagram>
  <diagram id="wvDQbkCvtmwPCXcF1pS3" name="MicroService">
    <mxGraphModel dx="1038" dy="610" grid="1" gridSize="10" guides="1" tooltips="1" connect="1" arrows="1" fold="1" page="1" pageScale="1" pageWidth="850" pageHeight="1100" math="0" shadow="0">
      <root>
        <mxCell id="0" />
        <mxCell id="1" parent="0" />
        <mxCell id="HBcy5nGZIomGWfcof_O_-1" value="" style="ellipse;whiteSpace=wrap;html=1;aspect=fixed;dashed=1;strokeColor=#7EA6E0;fillColor=#D6D6D6;gradientColor=#ffffff;" parent="1" vertex="1">
          <mxGeometry x="40" y="160" width="470" height="470" as="geometry" />
        </mxCell>
        <mxCell id="HBcy5nGZIomGWfcof_O_-2" value="" style="ellipse;whiteSpace=wrap;html=1;aspect=fixed;dashed=1;strokeColor=#7EA6E0;fillColor=#EDEDED;gradientColor=#ffffff;gradientDirection=west;" parent="1" vertex="1">
          <mxGeometry x="205" y="325" width="140" height="140" as="geometry" />
        </mxCell>
        <mxCell id="BocwoUOPCGG-07_ND_Cm-1" value="Kubernetes" style="ellipse;whiteSpace=wrap;html=1;aspect=fixed;" parent="1" vertex="1">
          <mxGeometry x="235" y="355" width="80" height="80" as="geometry" />
        </mxCell>
        <mxCell id="BocwoUOPCGG-07_ND_Cm-2" value="开发框架" style="ellipse;whiteSpace=wrap;html=1;aspect=fixed;" parent="1" vertex="1">
          <mxGeometry x="235" y="195" width="80" height="80" as="geometry" />
        </mxCell>
        <mxCell id="BocwoUOPCGG-07_ND_Cm-3" value="服务注册/发现" style="ellipse;whiteSpace=wrap;html=1;aspect=fixed;" parent="1" vertex="1">
          <mxGeometry x="355" y="235" width="80" height="80" as="geometry" />
        </mxCell>
        <mxCell id="BocwoUOPCGG-07_ND_Cm-4" value="限流降级" style="ellipse;whiteSpace=wrap;html=1;aspect=fixed;" parent="1" vertex="1">
          <mxGeometry x="395" y="355" width="80" height="80" as="geometry" />
        </mxCell>
        <mxCell id="BocwoUOPCGG-07_ND_Cm-5" value="服务治理" style="ellipse;whiteSpace=wrap;html=1;aspect=fixed;" parent="1" vertex="1">
          <mxGeometry x="355" y="475" width="80" height="80" as="geometry" />
        </mxCell>
        <mxCell id="BocwoUOPCGG-07_ND_Cm-6" value="配置管理" style="ellipse;whiteSpace=wrap;html=1;aspect=fixed;" parent="1" vertex="1">
          <mxGeometry x="235" y="515" width="80" height="80" as="geometry" />
        </mxCell>
        <mxCell id="BocwoUOPCGG-07_ND_Cm-7" value="&lt;div&gt;监控告警&lt;/div&gt;" style="ellipse;whiteSpace=wrap;html=1;aspect=fixed;" parent="1" vertex="1">
          <mxGeometry x="115" y="475" width="80" height="80" as="geometry" />
        </mxCell>
        <mxCell id="BocwoUOPCGG-07_ND_Cm-8" value="日志中心" style="ellipse;whiteSpace=wrap;html=1;aspect=fixed;" parent="1" vertex="1">
          <mxGeometry x="75" y="355" width="80" height="80" as="geometry" />
        </mxCell>
        <mxCell id="BocwoUOPCGG-07_ND_Cm-9" value="&lt;div&gt;定时调度/计划任务&lt;br&gt;&lt;/div&gt;" style="ellipse;whiteSpace=wrap;html=1;aspect=fixed;" parent="1" vertex="1">
          <mxGeometry x="115" y="235" width="80" height="80" as="geometry" />
        </mxCell>
        <mxCell id="zjgwLuNw4xFXAY5_9MK--1" value="&lt;h1&gt;MicroService Architecture 微服务技术架构&lt;br&gt;&lt;/h1&gt;&lt;p&gt;基于Java开发框架的微服务技术架构&lt;br&gt;&lt;/p&gt;" style="text;html=1;strokeColor=#7EA6E0;fillColor=none;spacing=5;spacingTop=-20;whiteSpace=wrap;overflow=hidden;rounded=0;" vertex="1" parent="1">
          <mxGeometry x="40" y="40" width="680" height="80" as="geometry" />
        </mxCell>
      </root>
    </mxGraphModel>
  </diagram>
  <diagram id="A81SncO9KEkFtXXvyf2d" name="Region">
    <mxGraphModel dx="1038" dy="610" grid="1" gridSize="10" guides="1" tooltips="1" connect="1" arrows="1" fold="1" page="1" pageScale="1" pageWidth="850" pageHeight="1100" math="0" shadow="0">
      <root>
        <mxCell id="0" />
        <mxCell id="1" parent="0" />
        <mxCell id="sU5FvFeqeSks7XALSstK-30" value="Region A" style="swimlane;labelBackgroundColor=none;fontSize=12;fontColor=#000000;strokeColor=#7EA6E0;fillColor=#F5F5F5;gradientColor=none;gradientDirection=west;" parent="1" vertex="1">
          <mxGeometry x="40" y="160" width="600" height="480" as="geometry" />
        </mxCell>
        <mxCell id="sU5FvFeqeSks7XALSstK-3" value="APP1 LBS" style="rounded=0;whiteSpace=wrap;html=1;labelBackgroundColor=none;fontSize=12;fontColor=#000000;strokeColor=#7EA6E0;fillColor=#F5F5F5;gradientColor=none;gradientDirection=west;" parent="sU5FvFeqeSks7XALSstK-30" vertex="1">
          <mxGeometry x="78" y="130" width="60" height="20" as="geometry" />
        </mxCell>
        <mxCell id="sU5FvFeqeSks7XALSstK-4" value="APP2 LBS" style="rounded=0;whiteSpace=wrap;html=1;labelBackgroundColor=none;fontSize=12;fontColor=#000000;strokeColor=#7EA6E0;fillColor=#F5F5F5;gradientColor=none;gradientDirection=west;" parent="sU5FvFeqeSks7XALSstK-30" vertex="1">
          <mxGeometry x="178" y="130" width="60" height="20" as="geometry" />
        </mxCell>
        <mxCell id="sU5FvFeqeSks7XALSstK-1" value="公网 LBS" style="rounded=0;whiteSpace=wrap;html=1;labelBackgroundColor=none;fontSize=12;fontColor=#000000;strokeColor=#7EA6E0;fillColor=#F5F5F5;gradientColor=none;gradientDirection=west;" parent="sU5FvFeqeSks7XALSstK-30" vertex="1">
          <mxGeometry x="78" y="100" width="160" height="20" as="geometry" />
        </mxCell>
        <mxCell id="sU5FvFeqeSks7XALSstK-31" value="DNS" style="rounded=0;whiteSpace=wrap;html=1;labelBackgroundColor=none;fontSize=12;fontColor=#000000;strokeColor=#7EA6E0;fillColor=#F5F5F5;gradientColor=none;gradientDirection=west;" parent="sU5FvFeqeSks7XALSstK-30" vertex="1">
          <mxGeometry x="78" y="70" width="160" height="20" as="geometry" />
        </mxCell>
        <mxCell id="sU5FvFeqeSks7XALSstK-32" value="APP1 LBS" style="rounded=0;whiteSpace=wrap;html=1;labelBackgroundColor=none;fontSize=12;fontColor=#000000;strokeColor=#7EA6E0;fillColor=#F5F5F5;gradientColor=none;gradientDirection=west;" parent="sU5FvFeqeSks7XALSstK-30" vertex="1">
          <mxGeometry x="360" y="130" width="60" height="20" as="geometry" />
        </mxCell>
        <mxCell id="sU5FvFeqeSks7XALSstK-33" value="APP2 LBS" style="rounded=0;whiteSpace=wrap;html=1;labelBackgroundColor=none;fontSize=12;fontColor=#000000;strokeColor=#7EA6E0;fillColor=#F5F5F5;gradientColor=none;gradientDirection=west;" parent="sU5FvFeqeSks7XALSstK-30" vertex="1">
          <mxGeometry x="460" y="130" width="60" height="20" as="geometry" />
        </mxCell>
        <mxCell id="sU5FvFeqeSks7XALSstK-34" value="公网 LBS" style="rounded=0;whiteSpace=wrap;html=1;labelBackgroundColor=none;fontSize=12;fontColor=#000000;strokeColor=#7EA6E0;fillColor=#F5F5F5;gradientColor=none;gradientDirection=west;" parent="sU5FvFeqeSks7XALSstK-30" vertex="1">
          <mxGeometry x="360" y="100" width="160" height="20" as="geometry" />
        </mxCell>
        <mxCell id="sU5FvFeqeSks7XALSstK-35" value="DNS" style="rounded=0;whiteSpace=wrap;html=1;labelBackgroundColor=none;fontSize=12;fontColor=#000000;strokeColor=#7EA6E0;fillColor=#F5F5F5;gradientColor=none;gradientDirection=west;" parent="sU5FvFeqeSks7XALSstK-30" vertex="1">
          <mxGeometry x="360" y="70" width="160" height="20" as="geometry" />
        </mxCell>
        <mxCell id="sU5FvFeqeSks7XALSstK-36" value="SpringCloud/Zookeeper" style="rounded=0;whiteSpace=wrap;html=1;labelBackgroundColor=none;fontSize=12;fontColor=#000000;strokeColor=#7EA6E0;fillColor=#F5F5F5;gradientColor=none;gradientDirection=west;" parent="sU5FvFeqeSks7XALSstK-30" vertex="1">
          <mxGeometry x="360" y="200" width="160" height="20" as="geometry" />
        </mxCell>
        <mxCell id="sU5FvFeqeSks7XALSstK-37" value="MQ Pulsar" style="rounded=0;whiteSpace=wrap;html=1;labelBackgroundColor=none;fontSize=12;fontColor=#000000;strokeColor=#7EA6E0;fillColor=#F5F5F5;gradientColor=none;gradientDirection=west;" parent="sU5FvFeqeSks7XALSstK-30" vertex="1">
          <mxGeometry x="360" y="237" width="160" height="20" as="geometry" />
        </mxCell>
        <mxCell id="sU5FvFeqeSks7XALSstK-38" value="内网 LBS" style="rounded=0;whiteSpace=wrap;html=1;labelBackgroundColor=none;fontSize=12;fontColor=#000000;strokeColor=#7EA6E0;fillColor=#F5F5F5;gradientColor=none;gradientDirection=west;" parent="sU5FvFeqeSks7XALSstK-30" vertex="1">
          <mxGeometry x="360" y="310" width="160" height="20" as="geometry" />
        </mxCell>
        <mxCell id="sU5FvFeqeSks7XALSstK-39" value="SchedulerX" style="rounded=0;whiteSpace=wrap;html=1;labelBackgroundColor=none;fontSize=12;fontColor=#000000;strokeColor=#7EA6E0;fillColor=#F5F5F5;gradientColor=none;gradientDirection=west;" parent="sU5FvFeqeSks7XALSstK-30" vertex="1">
          <mxGeometry x="360" y="273" width="160" height="20" as="geometry" />
        </mxCell>
        <mxCell id="sU5FvFeqeSks7XALSstK-40" value="Redis（高可用）" style="rounded=0;whiteSpace=wrap;html=1;labelBackgroundColor=none;fontSize=12;fontColor=#000000;strokeColor=#7EA6E0;fillColor=#F5F5F5;gradientColor=none;gradientDirection=west;" parent="sU5FvFeqeSks7XALSstK-30" vertex="1">
          <mxGeometry x="360" y="347" width="160" height="20" as="geometry" />
        </mxCell>
        <mxCell id="sU5FvFeqeSks7XALSstK-41" value="TDSQL（高可用）" style="rounded=0;whiteSpace=wrap;html=1;labelBackgroundColor=none;fontSize=12;fontColor=#000000;strokeColor=#7EA6E0;fillColor=#F5F5F5;gradientColor=none;gradientDirection=west;" parent="sU5FvFeqeSks7XALSstK-30" vertex="1">
          <mxGeometry x="360" y="383" width="160" height="20" as="geometry" />
        </mxCell>
        <mxCell id="sU5FvFeqeSks7XALSstK-42" value="业务应用部署集" style="swimlane;labelBackgroundColor=none;fontSize=12;fontColor=#000000;strokeColor=#7EA6E0;fillColor=#F5F5F5;gradientColor=none;gradientDirection=west;" parent="sU5FvFeqeSks7XALSstK-30" vertex="1">
          <mxGeometry x="340" y="160" width="200" height="260" as="geometry" />
        </mxCell>
        <mxCell id="sU5FvFeqeSks7XALSstK-43" value="Zone 1" style="swimlane;labelBackgroundColor=none;fontSize=12;fontColor=#000000;strokeColor=#7EA6E0;fillColor=#F5F5F5;gradientColor=none;gradientDirection=west;" parent="sU5FvFeqeSks7XALSstK-30" vertex="1">
          <mxGeometry x="320" y="40" width="240" height="400" as="geometry" />
        </mxCell>
        <mxCell id="sU5FvFeqeSks7XALSstK-7" value="SpringCloud/Zookeeper" style="rounded=0;whiteSpace=wrap;html=1;labelBackgroundColor=none;fontSize=12;fontColor=#000000;strokeColor=#7EA6E0;fillColor=#F5F5F5;gradientColor=none;gradientDirection=west;" parent="1" vertex="1">
          <mxGeometry x="118" y="360" width="160" height="20" as="geometry" />
        </mxCell>
        <mxCell id="sU5FvFeqeSks7XALSstK-8" value="MQ Pulsar" style="rounded=0;whiteSpace=wrap;html=1;labelBackgroundColor=none;fontSize=12;fontColor=#000000;strokeColor=#7EA6E0;fillColor=#F5F5F5;gradientColor=none;gradientDirection=west;" parent="1" vertex="1">
          <mxGeometry x="118" y="397" width="160" height="20" as="geometry" />
        </mxCell>
        <mxCell id="sU5FvFeqeSks7XALSstK-9" value="内网 LBS" style="rounded=0;whiteSpace=wrap;html=1;labelBackgroundColor=none;fontSize=12;fontColor=#000000;strokeColor=#7EA6E0;fillColor=#F5F5F5;gradientColor=none;gradientDirection=west;" parent="1" vertex="1">
          <mxGeometry x="118" y="470" width="160" height="20" as="geometry" />
        </mxCell>
        <mxCell id="sU5FvFeqeSks7XALSstK-10" value="SchedulerX" style="rounded=0;whiteSpace=wrap;html=1;labelBackgroundColor=none;fontSize=12;fontColor=#000000;strokeColor=#7EA6E0;fillColor=#F5F5F5;gradientColor=none;gradientDirection=west;" parent="1" vertex="1">
          <mxGeometry x="118" y="433" width="160" height="20" as="geometry" />
        </mxCell>
        <mxCell id="sU5FvFeqeSks7XALSstK-11" value="Redis（高可用）" style="rounded=0;whiteSpace=wrap;html=1;labelBackgroundColor=none;fontSize=12;fontColor=#000000;strokeColor=#7EA6E0;fillColor=#F5F5F5;gradientColor=none;gradientDirection=west;" parent="1" vertex="1">
          <mxGeometry x="118" y="507" width="160" height="20" as="geometry" />
        </mxCell>
        <mxCell id="sU5FvFeqeSks7XALSstK-12" value="TDSQL（高可用）" style="rounded=0;whiteSpace=wrap;html=1;labelBackgroundColor=none;fontSize=12;fontColor=#000000;strokeColor=#7EA6E0;fillColor=#F5F5F5;gradientColor=none;gradientDirection=west;" parent="1" vertex="1">
          <mxGeometry x="118" y="543" width="160" height="20" as="geometry" />
        </mxCell>
        <mxCell id="sU5FvFeqeSks7XALSstK-17" value="业务应用部署集" style="swimlane;labelBackgroundColor=none;fontSize=12;fontColor=#000000;strokeColor=#7EA6E0;fillColor=#F5F5F5;gradientColor=none;gradientDirection=west;" parent="1" vertex="1">
          <mxGeometry x="98" y="320" width="200" height="260" as="geometry" />
        </mxCell>
        <mxCell id="sU5FvFeqeSks7XALSstK-18" value="Zone 1" style="swimlane;labelBackgroundColor=none;fontSize=12;fontColor=#000000;strokeColor=#7EA6E0;fillColor=#F5F5F5;gradientColor=none;gradientDirection=west;" parent="1" vertex="1">
          <mxGeometry x="78" y="200" width="240" height="400" as="geometry" />
        </mxCell>
        <mxCell id="edB-AuA8gOr0otV2MHnj-1" value="&lt;h1&gt;Dual-Live In-City 同城多活&lt;br&gt;&lt;/h1&gt;&lt;p&gt;同城近邻区域双活多活模式&lt;br&gt;&lt;/p&gt;" style="text;html=1;strokeColor=#7EA6E0;fillColor=none;spacing=5;spacingTop=-20;whiteSpace=wrap;overflow=hidden;rounded=0;" vertex="1" parent="1">
          <mxGeometry x="40" y="40" width="680" height="80" as="geometry" />
        </mxCell>
      </root>
    </mxGraphModel>
  </diagram>
</mxfile>
